G04 #@! TF.GenerationSoftware,KiCad,Pcbnew,9.0.2*
G04 #@! TF.CreationDate,2025-12-29T14:16:24-08:00*
G04 #@! TF.ProjectId,akshera,616b7368-6572-4612-9e6b-696361645f70,rev?*
G04 #@! TF.SameCoordinates,Original*
G04 #@! TF.FileFunction,Copper,L2,Inr*
G04 #@! TF.FilePolarity,Positive*
%FSLAX46Y46*%
G04 Gerber Fmt 4.6, Leading zero omitted, Abs format (unit mm)*
G04 Created by KiCad (PCBNEW 9.0.2) date 2025-12-29 14:16:24*
%MOMM*%
%LPD*%
G01*
G04 APERTURE LIST*
G04 #@! TA.AperFunction,ComponentPad*
%ADD10C,1.524000*%
G04 #@! TD*
G04 #@! TA.AperFunction,ComponentPad*
%ADD11R,1.524000X1.524000*%
G04 #@! TD*
G04 #@! TA.AperFunction,ComponentPad*
%ADD12C,2.540000*%
G04 #@! TD*
G04 #@! TA.AperFunction,ComponentPad*
%ADD13R,2.540000X2.540000*%
G04 #@! TD*
G04 #@! TA.AperFunction,ComponentPad*
%ADD14C,2.000000*%
G04 #@! TD*
G04 #@! TA.AperFunction,ComponentPad*
%ADD15C,1.600000*%
G04 #@! TD*
G04 #@! TA.AperFunction,ComponentPad*
%ADD16C,1.800000*%
G04 #@! TD*
G04 #@! TA.AperFunction,ComponentPad*
%ADD17R,1.800000X1.800000*%
G04 #@! TD*
G04 #@! TA.AperFunction,ComponentPad*
%ADD18O,1.600000X1.600000*%
G04 #@! TD*
G04 #@! TA.AperFunction,ComponentPad*
%ADD19R,1.600000X1.600000*%
G04 #@! TD*
G04 #@! TA.AperFunction,ViaPad*
%ADD20C,0.600000*%
G04 #@! TD*
G04 APERTURE END LIST*
D10*
X143430000Y-92790000D03*
X140930000Y-92790000D03*
X138430000Y-92790000D03*
X135890000Y-92790000D03*
D11*
X133350000Y-92790000D03*
D12*
X152247000Y-62230000D03*
X147167000Y-62230000D03*
X142087000Y-62230000D03*
D13*
X137643000Y-62054000D03*
D14*
X200100000Y-98200000D03*
X206600000Y-98200000D03*
X200100000Y-102700000D03*
X206600000Y-102700000D03*
D15*
X186700000Y-97600000D03*
X186700000Y-102600000D03*
X194000000Y-95100000D03*
X194000000Y-102720000D03*
X186690000Y-90900000D03*
X186690000Y-85900000D03*
X194000000Y-83400000D03*
X194000000Y-91020000D03*
X186700000Y-78500000D03*
X186700000Y-73500000D03*
X194400000Y-70900000D03*
X194400000Y-78520000D03*
X187380000Y-62600000D03*
X195000000Y-62600000D03*
D16*
X198560000Y-62400000D03*
D17*
X201100000Y-62400000D03*
D14*
X206500000Y-78500000D03*
X200000000Y-78500000D03*
X206500000Y-74000000D03*
X200000000Y-74000000D03*
X206500000Y-91000000D03*
X200000000Y-91000000D03*
X206500000Y-86500000D03*
X200000000Y-86500000D03*
D18*
X166370000Y-101600000D03*
X166370000Y-99060000D03*
X166370000Y-96520000D03*
X166370000Y-93980000D03*
X166370000Y-91440000D03*
X166370000Y-88900000D03*
X166370000Y-86360000D03*
X166370000Y-83820000D03*
X166370000Y-81280000D03*
X166370000Y-78740000D03*
X166370000Y-76200000D03*
X166370000Y-73660000D03*
X166370000Y-71120000D03*
X166370000Y-68580000D03*
X166370000Y-66040000D03*
X181610000Y-66040000D03*
X181610000Y-68580000D03*
X181610000Y-71120000D03*
X181610000Y-73660000D03*
X181610000Y-76200000D03*
X181610000Y-78740000D03*
X181610000Y-81280000D03*
X181610000Y-83820000D03*
X181610000Y-86360000D03*
X181610000Y-88900000D03*
X181610000Y-91440000D03*
X181610000Y-93980000D03*
X181610000Y-96520000D03*
X181610000Y-99060000D03*
D19*
X181610000Y-101600000D03*
D20*
X184800000Y-93900000D03*
X201100000Y-72900000D03*
X147160000Y-86360000D03*
X152300000Y-83800000D03*
X183800000Y-86400000D03*
X184400000Y-91500000D03*
M02*
