%TF.GenerationSoftware,KiCad,Pcbnew,9.0.2*%
%TF.CreationDate,2025-12-29T14:15:13-08:00*%
%TF.ProjectId,akshera,616b7368-6572-4612-9e6b-696361645f70,rev?*%
%TF.SameCoordinates,Original*%
%TF.FileFunction,Plated,1,4,PTH,Drill*%
%TF.FilePolarity,Positive*%
%FSLAX46Y46*%
G04 Gerber Fmt 4.6, Leading zero omitted, Abs format (unit mm)*
G04 Created by KiCad (PCBNEW 9.0.2) date 2025-12-29 14:15:13*
%MOMM*%
%LPD*%
G01*
G04 APERTURE LIST*
%TA.AperFunction,ViaDrill*%
%ADD10C,0.300000*%
%TD*%
%TA.AperFunction,ComponentDrill*%
%ADD11C,0.762000*%
%TD*%
%TA.AperFunction,ComponentDrill*%
%ADD12C,0.800000*%
%TD*%
%TA.AperFunction,ComponentDrill*%
%ADD13C,0.900000*%
%TD*%
%TA.AperFunction,ComponentDrill*%
%ADD14C,1.000000*%
%TD*%
%TA.AperFunction,ComponentDrill*%
%ADD15C,1.100000*%
%TD*%
G04 APERTURE END LIST*
D10*
X147160000Y-86360000D03*
X152300000Y-83800000D03*
X183800000Y-86400000D03*
X184400000Y-91500000D03*
X184800000Y-93900000D03*
X201100000Y-72900000D03*
D11*
%TO.C,U1*%
X133350000Y-92790000D03*
X135890000Y-92790000D03*
X138430000Y-92790000D03*
X140930000Y-92790000D03*
X143430000Y-92790000D03*
D12*
%TO.C,U2*%
X137643000Y-62054000D03*
X142087000Y-62230000D03*
X147167000Y-62230000D03*
X152247000Y-62230000D03*
%TO.C,C2*%
X186690000Y-85900000D03*
X186690000Y-90900000D03*
%TO.C,C1*%
X186700000Y-73500000D03*
X186700000Y-78500000D03*
%TO.C,C3*%
X186700000Y-97600000D03*
X186700000Y-102600000D03*
%TO.C,R4*%
X187380000Y-62600000D03*
%TO.C,R2*%
X194000000Y-83400000D03*
X194000000Y-91020000D03*
%TO.C,R3*%
X194000000Y-95100000D03*
X194000000Y-102720000D03*
%TO.C,R1*%
X194400000Y-70900000D03*
X194400000Y-78520000D03*
%TO.C,R4*%
X195000000Y-62600000D03*
D13*
%TO.C,ALARM*%
X198560000Y-62400000D03*
X201100000Y-62400000D03*
D14*
%TO.C,A1*%
X166370000Y-66040000D03*
X166370000Y-68580000D03*
X166370000Y-71120000D03*
X166370000Y-73660000D03*
X166370000Y-76200000D03*
X166370000Y-78740000D03*
X166370000Y-81280000D03*
X166370000Y-83820000D03*
X166370000Y-86360000D03*
X166370000Y-88900000D03*
X166370000Y-91440000D03*
X166370000Y-93980000D03*
X166370000Y-96520000D03*
X166370000Y-99060000D03*
X166370000Y-101600000D03*
X181610000Y-66040000D03*
X181610000Y-68580000D03*
X181610000Y-71120000D03*
X181610000Y-73660000D03*
X181610000Y-76200000D03*
X181610000Y-78740000D03*
X181610000Y-81280000D03*
X181610000Y-83820000D03*
X181610000Y-86360000D03*
X181610000Y-88900000D03*
X181610000Y-91440000D03*
X181610000Y-93980000D03*
X181610000Y-96520000D03*
X181610000Y-99060000D03*
X181610000Y-101600000D03*
D15*
%TO.C,MENU*%
X200000000Y-74000000D03*
X200000000Y-78500000D03*
%TO.C,UP*%
X200000000Y-86500000D03*
X200000000Y-91000000D03*
%TO.C,DOWN*%
X200100000Y-98200000D03*
X200100000Y-102700000D03*
%TO.C,MENU*%
X206500000Y-74000000D03*
X206500000Y-78500000D03*
%TO.C,UP*%
X206500000Y-86500000D03*
X206500000Y-91000000D03*
%TO.C,DOWN*%
X206600000Y-98200000D03*
X206600000Y-102700000D03*
M02*
