G04 #@! TF.GenerationSoftware,KiCad,Pcbnew,9.0.2*
G04 #@! TF.CreationDate,2025-12-29T14:16:25-08:00*
G04 #@! TF.ProjectId,akshera,616b7368-6572-4612-9e6b-696361645f70,rev?*
G04 #@! TF.SameCoordinates,Original*
G04 #@! TF.FileFunction,Legend,Top*
G04 #@! TF.FilePolarity,Positive*
%FSLAX46Y46*%
G04 Gerber Fmt 4.6, Leading zero omitted, Abs format (unit mm)*
G04 Created by KiCad (PCBNEW 9.0.2) date 2025-12-29 14:16:25*
%MOMM*%
%LPD*%
G01*
G04 APERTURE LIST*
%ADD10C,0.152400*%
%ADD11C,0.300000*%
%ADD12C,0.100000*%
%ADD13C,0.150000*%
%ADD14C,0.120000*%
G04 APERTURE END LIST*
D10*
X140826015Y-67379803D02*
X140826015Y-67960375D01*
X140826015Y-67960375D02*
X140787310Y-68076489D01*
X140787310Y-68076489D02*
X140709901Y-68153899D01*
X140709901Y-68153899D02*
X140593786Y-68192603D01*
X140593786Y-68192603D02*
X140516377Y-68192603D01*
X141600110Y-68192603D02*
X141213062Y-68192603D01*
X141213062Y-68192603D02*
X141213062Y-67379803D01*
X142335500Y-68115194D02*
X142296796Y-68153899D01*
X142296796Y-68153899D02*
X142180681Y-68192603D01*
X142180681Y-68192603D02*
X142103272Y-68192603D01*
X142103272Y-68192603D02*
X141987158Y-68153899D01*
X141987158Y-68153899D02*
X141909748Y-68076489D01*
X141909748Y-68076489D02*
X141871043Y-67999079D01*
X141871043Y-67999079D02*
X141832339Y-67844260D01*
X141832339Y-67844260D02*
X141832339Y-67728146D01*
X141832339Y-67728146D02*
X141871043Y-67573327D01*
X141871043Y-67573327D02*
X141909748Y-67495918D01*
X141909748Y-67495918D02*
X141987158Y-67418508D01*
X141987158Y-67418508D02*
X142103272Y-67379803D01*
X142103272Y-67379803D02*
X142180681Y-67379803D01*
X142180681Y-67379803D02*
X142296796Y-67418508D01*
X142296796Y-67418508D02*
X142335500Y-67457213D01*
X142916072Y-67379803D02*
X142916072Y-67960375D01*
X142916072Y-67960375D02*
X142877367Y-68076489D01*
X142877367Y-68076489D02*
X142799958Y-68153899D01*
X142799958Y-68153899D02*
X142683843Y-68192603D01*
X142683843Y-68192603D02*
X142606434Y-68192603D01*
X143690167Y-68192603D02*
X143303119Y-68192603D01*
X143303119Y-68192603D02*
X143303119Y-67379803D01*
X144425557Y-68115194D02*
X144386853Y-68153899D01*
X144386853Y-68153899D02*
X144270738Y-68192603D01*
X144270738Y-68192603D02*
X144193329Y-68192603D01*
X144193329Y-68192603D02*
X144077215Y-68153899D01*
X144077215Y-68153899D02*
X143999805Y-68076489D01*
X143999805Y-68076489D02*
X143961100Y-67999079D01*
X143961100Y-67999079D02*
X143922396Y-67844260D01*
X143922396Y-67844260D02*
X143922396Y-67728146D01*
X143922396Y-67728146D02*
X143961100Y-67573327D01*
X143961100Y-67573327D02*
X143999805Y-67495918D01*
X143999805Y-67495918D02*
X144077215Y-67418508D01*
X144077215Y-67418508D02*
X144193329Y-67379803D01*
X144193329Y-67379803D02*
X144270738Y-67379803D01*
X144270738Y-67379803D02*
X144386853Y-67418508D01*
X144386853Y-67418508D02*
X144425557Y-67457213D01*
X145006129Y-67379803D02*
X145006129Y-67960375D01*
X145006129Y-67960375D02*
X144967424Y-68076489D01*
X144967424Y-68076489D02*
X144890015Y-68153899D01*
X144890015Y-68153899D02*
X144773900Y-68192603D01*
X144773900Y-68192603D02*
X144696491Y-68192603D01*
X145780224Y-68192603D02*
X145393176Y-68192603D01*
X145393176Y-68192603D02*
X145393176Y-67379803D01*
X146515614Y-68115194D02*
X146476910Y-68153899D01*
X146476910Y-68153899D02*
X146360795Y-68192603D01*
X146360795Y-68192603D02*
X146283386Y-68192603D01*
X146283386Y-68192603D02*
X146167272Y-68153899D01*
X146167272Y-68153899D02*
X146089862Y-68076489D01*
X146089862Y-68076489D02*
X146051157Y-67999079D01*
X146051157Y-67999079D02*
X146012453Y-67844260D01*
X146012453Y-67844260D02*
X146012453Y-67728146D01*
X146012453Y-67728146D02*
X146051157Y-67573327D01*
X146051157Y-67573327D02*
X146089862Y-67495918D01*
X146089862Y-67495918D02*
X146167272Y-67418508D01*
X146167272Y-67418508D02*
X146283386Y-67379803D01*
X146283386Y-67379803D02*
X146360795Y-67379803D01*
X146360795Y-67379803D02*
X146476910Y-67418508D01*
X146476910Y-67418508D02*
X146515614Y-67457213D01*
X147096186Y-67379803D02*
X147096186Y-67960375D01*
X147096186Y-67960375D02*
X147057481Y-68076489D01*
X147057481Y-68076489D02*
X146980072Y-68153899D01*
X146980072Y-68153899D02*
X146863957Y-68192603D01*
X146863957Y-68192603D02*
X146786548Y-68192603D01*
X147870281Y-68192603D02*
X147483233Y-68192603D01*
X147483233Y-68192603D02*
X147483233Y-67379803D01*
X148605671Y-68115194D02*
X148566967Y-68153899D01*
X148566967Y-68153899D02*
X148450852Y-68192603D01*
X148450852Y-68192603D02*
X148373443Y-68192603D01*
X148373443Y-68192603D02*
X148257329Y-68153899D01*
X148257329Y-68153899D02*
X148179919Y-68076489D01*
X148179919Y-68076489D02*
X148141214Y-67999079D01*
X148141214Y-67999079D02*
X148102510Y-67844260D01*
X148102510Y-67844260D02*
X148102510Y-67728146D01*
X148102510Y-67728146D02*
X148141214Y-67573327D01*
X148141214Y-67573327D02*
X148179919Y-67495918D01*
X148179919Y-67495918D02*
X148257329Y-67418508D01*
X148257329Y-67418508D02*
X148373443Y-67379803D01*
X148373443Y-67379803D02*
X148450852Y-67379803D01*
X148450852Y-67379803D02*
X148566967Y-67418508D01*
X148566967Y-67418508D02*
X148605671Y-67457213D01*
X148693786Y-103192603D02*
X148693786Y-102379803D01*
X148693786Y-102379803D02*
X148887310Y-102379803D01*
X148887310Y-102379803D02*
X149003424Y-102418508D01*
X149003424Y-102418508D02*
X149080834Y-102495918D01*
X149080834Y-102495918D02*
X149119539Y-102573327D01*
X149119539Y-102573327D02*
X149158243Y-102728146D01*
X149158243Y-102728146D02*
X149158243Y-102844260D01*
X149158243Y-102844260D02*
X149119539Y-102999079D01*
X149119539Y-102999079D02*
X149080834Y-103076489D01*
X149080834Y-103076489D02*
X149003424Y-103153899D01*
X149003424Y-103153899D02*
X148887310Y-103192603D01*
X148887310Y-103192603D02*
X148693786Y-103192603D01*
X149506586Y-102766851D02*
X149777520Y-102766851D01*
X149893634Y-103192603D02*
X149506586Y-103192603D01*
X149506586Y-103192603D02*
X149506586Y-102379803D01*
X149506586Y-102379803D02*
X149893634Y-102379803D01*
X150706433Y-103115194D02*
X150667729Y-103153899D01*
X150667729Y-103153899D02*
X150551614Y-103192603D01*
X150551614Y-103192603D02*
X150474205Y-103192603D01*
X150474205Y-103192603D02*
X150358091Y-103153899D01*
X150358091Y-103153899D02*
X150280681Y-103076489D01*
X150280681Y-103076489D02*
X150241976Y-102999079D01*
X150241976Y-102999079D02*
X150203272Y-102844260D01*
X150203272Y-102844260D02*
X150203272Y-102728146D01*
X150203272Y-102728146D02*
X150241976Y-102573327D01*
X150241976Y-102573327D02*
X150280681Y-102495918D01*
X150280681Y-102495918D02*
X150358091Y-102418508D01*
X150358091Y-102418508D02*
X150474205Y-102379803D01*
X150474205Y-102379803D02*
X150551614Y-102379803D01*
X150551614Y-102379803D02*
X150667729Y-102418508D01*
X150667729Y-102418508D02*
X150706433Y-102457213D01*
X151635348Y-102341099D02*
X150938662Y-103386127D01*
X151867577Y-102457213D02*
X151906281Y-102418508D01*
X151906281Y-102418508D02*
X151983691Y-102379803D01*
X151983691Y-102379803D02*
X152177215Y-102379803D01*
X152177215Y-102379803D02*
X152254624Y-102418508D01*
X152254624Y-102418508D02*
X152293329Y-102457213D01*
X152293329Y-102457213D02*
X152332034Y-102534622D01*
X152332034Y-102534622D02*
X152332034Y-102612032D01*
X152332034Y-102612032D02*
X152293329Y-102728146D01*
X152293329Y-102728146D02*
X151828872Y-103192603D01*
X151828872Y-103192603D02*
X152332034Y-103192603D01*
X152719081Y-103192603D02*
X152873900Y-103192603D01*
X152873900Y-103192603D02*
X152951310Y-103153899D01*
X152951310Y-103153899D02*
X152990014Y-103115194D01*
X152990014Y-103115194D02*
X153067424Y-102999079D01*
X153067424Y-102999079D02*
X153106129Y-102844260D01*
X153106129Y-102844260D02*
X153106129Y-102534622D01*
X153106129Y-102534622D02*
X153067424Y-102457213D01*
X153067424Y-102457213D02*
X153028719Y-102418508D01*
X153028719Y-102418508D02*
X152951310Y-102379803D01*
X152951310Y-102379803D02*
X152796491Y-102379803D01*
X152796491Y-102379803D02*
X152719081Y-102418508D01*
X152719081Y-102418508D02*
X152680376Y-102457213D01*
X152680376Y-102457213D02*
X152641672Y-102534622D01*
X152641672Y-102534622D02*
X152641672Y-102728146D01*
X152641672Y-102728146D02*
X152680376Y-102805556D01*
X152680376Y-102805556D02*
X152719081Y-102844260D01*
X152719081Y-102844260D02*
X152796491Y-102882965D01*
X152796491Y-102882965D02*
X152951310Y-102882965D01*
X152951310Y-102882965D02*
X153028719Y-102844260D01*
X153028719Y-102844260D02*
X153067424Y-102805556D01*
X153067424Y-102805556D02*
X153106129Y-102728146D01*
X154035043Y-102341099D02*
X153338357Y-103386127D01*
X154267272Y-102457213D02*
X154305976Y-102418508D01*
X154305976Y-102418508D02*
X154383386Y-102379803D01*
X154383386Y-102379803D02*
X154576910Y-102379803D01*
X154576910Y-102379803D02*
X154654319Y-102418508D01*
X154654319Y-102418508D02*
X154693024Y-102457213D01*
X154693024Y-102457213D02*
X154731729Y-102534622D01*
X154731729Y-102534622D02*
X154731729Y-102612032D01*
X154731729Y-102612032D02*
X154693024Y-102728146D01*
X154693024Y-102728146D02*
X154228567Y-103192603D01*
X154228567Y-103192603D02*
X154731729Y-103192603D01*
X155234890Y-102379803D02*
X155312300Y-102379803D01*
X155312300Y-102379803D02*
X155389709Y-102418508D01*
X155389709Y-102418508D02*
X155428414Y-102457213D01*
X155428414Y-102457213D02*
X155467119Y-102534622D01*
X155467119Y-102534622D02*
X155505824Y-102689441D01*
X155505824Y-102689441D02*
X155505824Y-102882965D01*
X155505824Y-102882965D02*
X155467119Y-103037784D01*
X155467119Y-103037784D02*
X155428414Y-103115194D01*
X155428414Y-103115194D02*
X155389709Y-103153899D01*
X155389709Y-103153899D02*
X155312300Y-103192603D01*
X155312300Y-103192603D02*
X155234890Y-103192603D01*
X155234890Y-103192603D02*
X155157481Y-103153899D01*
X155157481Y-103153899D02*
X155118776Y-103115194D01*
X155118776Y-103115194D02*
X155080071Y-103037784D01*
X155080071Y-103037784D02*
X155041367Y-102882965D01*
X155041367Y-102882965D02*
X155041367Y-102689441D01*
X155041367Y-102689441D02*
X155080071Y-102534622D01*
X155080071Y-102534622D02*
X155118776Y-102457213D01*
X155118776Y-102457213D02*
X155157481Y-102418508D01*
X155157481Y-102418508D02*
X155234890Y-102379803D01*
X155815462Y-102457213D02*
X155854166Y-102418508D01*
X155854166Y-102418508D02*
X155931576Y-102379803D01*
X155931576Y-102379803D02*
X156125100Y-102379803D01*
X156125100Y-102379803D02*
X156202509Y-102418508D01*
X156202509Y-102418508D02*
X156241214Y-102457213D01*
X156241214Y-102457213D02*
X156279919Y-102534622D01*
X156279919Y-102534622D02*
X156279919Y-102612032D01*
X156279919Y-102612032D02*
X156241214Y-102728146D01*
X156241214Y-102728146D02*
X155776757Y-103192603D01*
X155776757Y-103192603D02*
X156279919Y-103192603D01*
X157015309Y-102379803D02*
X156628261Y-102379803D01*
X156628261Y-102379803D02*
X156589557Y-102766851D01*
X156589557Y-102766851D02*
X156628261Y-102728146D01*
X156628261Y-102728146D02*
X156705671Y-102689441D01*
X156705671Y-102689441D02*
X156899195Y-102689441D01*
X156899195Y-102689441D02*
X156976604Y-102728146D01*
X156976604Y-102728146D02*
X157015309Y-102766851D01*
X157015309Y-102766851D02*
X157054014Y-102844260D01*
X157054014Y-102844260D02*
X157054014Y-103037784D01*
X157054014Y-103037784D02*
X157015309Y-103115194D01*
X157015309Y-103115194D02*
X156976604Y-103153899D01*
X156976604Y-103153899D02*
X156899195Y-103192603D01*
X156899195Y-103192603D02*
X156705671Y-103192603D01*
X156705671Y-103192603D02*
X156628261Y-103153899D01*
X156628261Y-103153899D02*
X156589557Y-103115194D01*
X158021632Y-102882965D02*
X158640909Y-102882965D01*
X159569823Y-102650737D02*
X159763347Y-103192603D01*
X159763347Y-103192603D02*
X159956870Y-102650737D01*
X160692261Y-103192603D02*
X160227804Y-103192603D01*
X160460032Y-103192603D02*
X160460032Y-102379803D01*
X160460032Y-102379803D02*
X160382623Y-102495918D01*
X160382623Y-102495918D02*
X160305213Y-102573327D01*
X160305213Y-102573327D02*
X160227804Y-102612032D01*
X161040603Y-103115194D02*
X161079308Y-103153899D01*
X161079308Y-103153899D02*
X161040603Y-103192603D01*
X161040603Y-103192603D02*
X161001899Y-103153899D01*
X161001899Y-103153899D02*
X161040603Y-103115194D01*
X161040603Y-103115194D02*
X161040603Y-103192603D01*
X161582470Y-102379803D02*
X161659880Y-102379803D01*
X161659880Y-102379803D02*
X161737289Y-102418508D01*
X161737289Y-102418508D02*
X161775994Y-102457213D01*
X161775994Y-102457213D02*
X161814699Y-102534622D01*
X161814699Y-102534622D02*
X161853404Y-102689441D01*
X161853404Y-102689441D02*
X161853404Y-102882965D01*
X161853404Y-102882965D02*
X161814699Y-103037784D01*
X161814699Y-103037784D02*
X161775994Y-103115194D01*
X161775994Y-103115194D02*
X161737289Y-103153899D01*
X161737289Y-103153899D02*
X161659880Y-103192603D01*
X161659880Y-103192603D02*
X161582470Y-103192603D01*
X161582470Y-103192603D02*
X161505061Y-103153899D01*
X161505061Y-103153899D02*
X161466356Y-103115194D01*
X161466356Y-103115194D02*
X161427651Y-103037784D01*
X161427651Y-103037784D02*
X161388947Y-102882965D01*
X161388947Y-102882965D02*
X161388947Y-102689441D01*
X161388947Y-102689441D02*
X161427651Y-102534622D01*
X161427651Y-102534622D02*
X161466356Y-102457213D01*
X161466356Y-102457213D02*
X161505061Y-102418508D01*
X161505061Y-102418508D02*
X161582470Y-102379803D01*
D11*
X152242857Y-98466215D02*
X152242857Y-96666215D01*
X152242857Y-96666215D02*
X152671428Y-96666215D01*
X152671428Y-96666215D02*
X152928571Y-96751929D01*
X152928571Y-96751929D02*
X153100000Y-96923358D01*
X153100000Y-96923358D02*
X153185714Y-97094786D01*
X153185714Y-97094786D02*
X153271428Y-97437643D01*
X153271428Y-97437643D02*
X153271428Y-97694786D01*
X153271428Y-97694786D02*
X153185714Y-98037643D01*
X153185714Y-98037643D02*
X153100000Y-98209072D01*
X153100000Y-98209072D02*
X152928571Y-98380501D01*
X152928571Y-98380501D02*
X152671428Y-98466215D01*
X152671428Y-98466215D02*
X152242857Y-98466215D01*
X154042857Y-98466215D02*
X154042857Y-96666215D01*
X155242857Y-97609072D02*
X155242857Y-98466215D01*
X154642857Y-96666215D02*
X155242857Y-97609072D01*
X155242857Y-97609072D02*
X155842857Y-96666215D01*
X151385714Y-101278400D02*
X151642857Y-101364114D01*
X151642857Y-101364114D02*
X152071428Y-101364114D01*
X152071428Y-101364114D02*
X152242857Y-101278400D01*
X152242857Y-101278400D02*
X152328571Y-101192685D01*
X152328571Y-101192685D02*
X152414285Y-101021257D01*
X152414285Y-101021257D02*
X152414285Y-100849828D01*
X152414285Y-100849828D02*
X152328571Y-100678400D01*
X152328571Y-100678400D02*
X152242857Y-100592685D01*
X152242857Y-100592685D02*
X152071428Y-100506971D01*
X152071428Y-100506971D02*
X151728571Y-100421257D01*
X151728571Y-100421257D02*
X151557142Y-100335542D01*
X151557142Y-100335542D02*
X151471428Y-100249828D01*
X151471428Y-100249828D02*
X151385714Y-100078400D01*
X151385714Y-100078400D02*
X151385714Y-99906971D01*
X151385714Y-99906971D02*
X151471428Y-99735542D01*
X151471428Y-99735542D02*
X151557142Y-99649828D01*
X151557142Y-99649828D02*
X151728571Y-99564114D01*
X151728571Y-99564114D02*
X152157142Y-99564114D01*
X152157142Y-99564114D02*
X152414285Y-99649828D01*
X153185714Y-101364114D02*
X153185714Y-99564114D01*
X153185714Y-99564114D02*
X153871428Y-99564114D01*
X153871428Y-99564114D02*
X154042857Y-99649828D01*
X154042857Y-99649828D02*
X154128571Y-99735542D01*
X154128571Y-99735542D02*
X154214285Y-99906971D01*
X154214285Y-99906971D02*
X154214285Y-100164114D01*
X154214285Y-100164114D02*
X154128571Y-100335542D01*
X154128571Y-100335542D02*
X154042857Y-100421257D01*
X154042857Y-100421257D02*
X153871428Y-100506971D01*
X153871428Y-100506971D02*
X153185714Y-100506971D01*
X155328571Y-99564114D02*
X155671428Y-99564114D01*
X155671428Y-99564114D02*
X155842857Y-99649828D01*
X155842857Y-99649828D02*
X156014285Y-99821257D01*
X156014285Y-99821257D02*
X156100000Y-100164114D01*
X156100000Y-100164114D02*
X156100000Y-100764114D01*
X156100000Y-100764114D02*
X156014285Y-101106971D01*
X156014285Y-101106971D02*
X155842857Y-101278400D01*
X155842857Y-101278400D02*
X155671428Y-101364114D01*
X155671428Y-101364114D02*
X155328571Y-101364114D01*
X155328571Y-101364114D02*
X155157143Y-101278400D01*
X155157143Y-101278400D02*
X154985714Y-101106971D01*
X154985714Y-101106971D02*
X154900000Y-100764114D01*
X154900000Y-100764114D02*
X154900000Y-100164114D01*
X154900000Y-100164114D02*
X154985714Y-99821257D01*
X154985714Y-99821257D02*
X155157143Y-99649828D01*
X155157143Y-99649828D02*
X155328571Y-99564114D01*
X156785714Y-99735542D02*
X156871428Y-99649828D01*
X156871428Y-99649828D02*
X157042857Y-99564114D01*
X157042857Y-99564114D02*
X157471428Y-99564114D01*
X157471428Y-99564114D02*
X157642857Y-99649828D01*
X157642857Y-99649828D02*
X157728571Y-99735542D01*
X157728571Y-99735542D02*
X157814285Y-99906971D01*
X157814285Y-99906971D02*
X157814285Y-100078400D01*
X157814285Y-100078400D02*
X157728571Y-100335542D01*
X157728571Y-100335542D02*
X156699999Y-101364114D01*
X156699999Y-101364114D02*
X157814285Y-101364114D01*
D10*
X186992603Y-76880460D02*
X186992603Y-77344917D01*
X186992603Y-77112689D02*
X186179803Y-77112689D01*
X186179803Y-77112689D02*
X186295918Y-77190098D01*
X186295918Y-77190098D02*
X186373327Y-77267508D01*
X186373327Y-77267508D02*
X186412032Y-77344917D01*
X186179803Y-76377299D02*
X186179803Y-76299889D01*
X186179803Y-76299889D02*
X186218508Y-76222480D01*
X186218508Y-76222480D02*
X186257213Y-76183775D01*
X186257213Y-76183775D02*
X186334622Y-76145070D01*
X186334622Y-76145070D02*
X186489441Y-76106365D01*
X186489441Y-76106365D02*
X186682965Y-76106365D01*
X186682965Y-76106365D02*
X186837784Y-76145070D01*
X186837784Y-76145070D02*
X186915194Y-76183775D01*
X186915194Y-76183775D02*
X186953899Y-76222480D01*
X186953899Y-76222480D02*
X186992603Y-76299889D01*
X186992603Y-76299889D02*
X186992603Y-76377299D01*
X186992603Y-76377299D02*
X186953899Y-76454708D01*
X186953899Y-76454708D02*
X186915194Y-76493413D01*
X186915194Y-76493413D02*
X186837784Y-76532118D01*
X186837784Y-76532118D02*
X186682965Y-76570822D01*
X186682965Y-76570822D02*
X186489441Y-76570822D01*
X186489441Y-76570822D02*
X186334622Y-76532118D01*
X186334622Y-76532118D02*
X186257213Y-76493413D01*
X186257213Y-76493413D02*
X186218508Y-76454708D01*
X186218508Y-76454708D02*
X186179803Y-76377299D01*
X186179803Y-75603204D02*
X186179803Y-75525794D01*
X186179803Y-75525794D02*
X186218508Y-75448385D01*
X186218508Y-75448385D02*
X186257213Y-75409680D01*
X186257213Y-75409680D02*
X186334622Y-75370975D01*
X186334622Y-75370975D02*
X186489441Y-75332270D01*
X186489441Y-75332270D02*
X186682965Y-75332270D01*
X186682965Y-75332270D02*
X186837784Y-75370975D01*
X186837784Y-75370975D02*
X186915194Y-75409680D01*
X186915194Y-75409680D02*
X186953899Y-75448385D01*
X186953899Y-75448385D02*
X186992603Y-75525794D01*
X186992603Y-75525794D02*
X186992603Y-75603204D01*
X186992603Y-75603204D02*
X186953899Y-75680613D01*
X186953899Y-75680613D02*
X186915194Y-75719318D01*
X186915194Y-75719318D02*
X186837784Y-75758023D01*
X186837784Y-75758023D02*
X186682965Y-75796727D01*
X186682965Y-75796727D02*
X186489441Y-75796727D01*
X186489441Y-75796727D02*
X186334622Y-75758023D01*
X186334622Y-75758023D02*
X186257213Y-75719318D01*
X186257213Y-75719318D02*
X186218508Y-75680613D01*
X186218508Y-75680613D02*
X186179803Y-75603204D01*
X186450737Y-74983928D02*
X186992603Y-74983928D01*
X186528146Y-74983928D02*
X186489441Y-74945223D01*
X186489441Y-74945223D02*
X186450737Y-74867813D01*
X186450737Y-74867813D02*
X186450737Y-74751699D01*
X186450737Y-74751699D02*
X186489441Y-74674290D01*
X186489441Y-74674290D02*
X186566851Y-74635585D01*
X186566851Y-74635585D02*
X186992603Y-74635585D01*
X186792603Y-89080460D02*
X186792603Y-89544917D01*
X186792603Y-89312689D02*
X185979803Y-89312689D01*
X185979803Y-89312689D02*
X186095918Y-89390098D01*
X186095918Y-89390098D02*
X186173327Y-89467508D01*
X186173327Y-89467508D02*
X186212032Y-89544917D01*
X185979803Y-88577299D02*
X185979803Y-88499889D01*
X185979803Y-88499889D02*
X186018508Y-88422480D01*
X186018508Y-88422480D02*
X186057213Y-88383775D01*
X186057213Y-88383775D02*
X186134622Y-88345070D01*
X186134622Y-88345070D02*
X186289441Y-88306365D01*
X186289441Y-88306365D02*
X186482965Y-88306365D01*
X186482965Y-88306365D02*
X186637784Y-88345070D01*
X186637784Y-88345070D02*
X186715194Y-88383775D01*
X186715194Y-88383775D02*
X186753899Y-88422480D01*
X186753899Y-88422480D02*
X186792603Y-88499889D01*
X186792603Y-88499889D02*
X186792603Y-88577299D01*
X186792603Y-88577299D02*
X186753899Y-88654708D01*
X186753899Y-88654708D02*
X186715194Y-88693413D01*
X186715194Y-88693413D02*
X186637784Y-88732118D01*
X186637784Y-88732118D02*
X186482965Y-88770822D01*
X186482965Y-88770822D02*
X186289441Y-88770822D01*
X186289441Y-88770822D02*
X186134622Y-88732118D01*
X186134622Y-88732118D02*
X186057213Y-88693413D01*
X186057213Y-88693413D02*
X186018508Y-88654708D01*
X186018508Y-88654708D02*
X185979803Y-88577299D01*
X185979803Y-87803204D02*
X185979803Y-87725794D01*
X185979803Y-87725794D02*
X186018508Y-87648385D01*
X186018508Y-87648385D02*
X186057213Y-87609680D01*
X186057213Y-87609680D02*
X186134622Y-87570975D01*
X186134622Y-87570975D02*
X186289441Y-87532270D01*
X186289441Y-87532270D02*
X186482965Y-87532270D01*
X186482965Y-87532270D02*
X186637784Y-87570975D01*
X186637784Y-87570975D02*
X186715194Y-87609680D01*
X186715194Y-87609680D02*
X186753899Y-87648385D01*
X186753899Y-87648385D02*
X186792603Y-87725794D01*
X186792603Y-87725794D02*
X186792603Y-87803204D01*
X186792603Y-87803204D02*
X186753899Y-87880613D01*
X186753899Y-87880613D02*
X186715194Y-87919318D01*
X186715194Y-87919318D02*
X186637784Y-87958023D01*
X186637784Y-87958023D02*
X186482965Y-87996727D01*
X186482965Y-87996727D02*
X186289441Y-87996727D01*
X186289441Y-87996727D02*
X186134622Y-87958023D01*
X186134622Y-87958023D02*
X186057213Y-87919318D01*
X186057213Y-87919318D02*
X186018508Y-87880613D01*
X186018508Y-87880613D02*
X185979803Y-87803204D01*
X186250737Y-87183928D02*
X186792603Y-87183928D01*
X186328146Y-87183928D02*
X186289441Y-87145223D01*
X186289441Y-87145223D02*
X186250737Y-87067813D01*
X186250737Y-87067813D02*
X186250737Y-86951699D01*
X186250737Y-86951699D02*
X186289441Y-86874290D01*
X186289441Y-86874290D02*
X186366851Y-86835585D01*
X186366851Y-86835585D02*
X186792603Y-86835585D01*
X186792603Y-100980460D02*
X186792603Y-101444917D01*
X186792603Y-101212689D02*
X185979803Y-101212689D01*
X185979803Y-101212689D02*
X186095918Y-101290098D01*
X186095918Y-101290098D02*
X186173327Y-101367508D01*
X186173327Y-101367508D02*
X186212032Y-101444917D01*
X185979803Y-100477299D02*
X185979803Y-100399889D01*
X185979803Y-100399889D02*
X186018508Y-100322480D01*
X186018508Y-100322480D02*
X186057213Y-100283775D01*
X186057213Y-100283775D02*
X186134622Y-100245070D01*
X186134622Y-100245070D02*
X186289441Y-100206365D01*
X186289441Y-100206365D02*
X186482965Y-100206365D01*
X186482965Y-100206365D02*
X186637784Y-100245070D01*
X186637784Y-100245070D02*
X186715194Y-100283775D01*
X186715194Y-100283775D02*
X186753899Y-100322480D01*
X186753899Y-100322480D02*
X186792603Y-100399889D01*
X186792603Y-100399889D02*
X186792603Y-100477299D01*
X186792603Y-100477299D02*
X186753899Y-100554708D01*
X186753899Y-100554708D02*
X186715194Y-100593413D01*
X186715194Y-100593413D02*
X186637784Y-100632118D01*
X186637784Y-100632118D02*
X186482965Y-100670822D01*
X186482965Y-100670822D02*
X186289441Y-100670822D01*
X186289441Y-100670822D02*
X186134622Y-100632118D01*
X186134622Y-100632118D02*
X186057213Y-100593413D01*
X186057213Y-100593413D02*
X186018508Y-100554708D01*
X186018508Y-100554708D02*
X185979803Y-100477299D01*
X185979803Y-99703204D02*
X185979803Y-99625794D01*
X185979803Y-99625794D02*
X186018508Y-99548385D01*
X186018508Y-99548385D02*
X186057213Y-99509680D01*
X186057213Y-99509680D02*
X186134622Y-99470975D01*
X186134622Y-99470975D02*
X186289441Y-99432270D01*
X186289441Y-99432270D02*
X186482965Y-99432270D01*
X186482965Y-99432270D02*
X186637784Y-99470975D01*
X186637784Y-99470975D02*
X186715194Y-99509680D01*
X186715194Y-99509680D02*
X186753899Y-99548385D01*
X186753899Y-99548385D02*
X186792603Y-99625794D01*
X186792603Y-99625794D02*
X186792603Y-99703204D01*
X186792603Y-99703204D02*
X186753899Y-99780613D01*
X186753899Y-99780613D02*
X186715194Y-99819318D01*
X186715194Y-99819318D02*
X186637784Y-99858023D01*
X186637784Y-99858023D02*
X186482965Y-99896727D01*
X186482965Y-99896727D02*
X186289441Y-99896727D01*
X186289441Y-99896727D02*
X186134622Y-99858023D01*
X186134622Y-99858023D02*
X186057213Y-99819318D01*
X186057213Y-99819318D02*
X186018508Y-99780613D01*
X186018508Y-99780613D02*
X185979803Y-99703204D01*
X186250737Y-99083928D02*
X186792603Y-99083928D01*
X186328146Y-99083928D02*
X186289441Y-99045223D01*
X186289441Y-99045223D02*
X186250737Y-98967813D01*
X186250737Y-98967813D02*
X186250737Y-98851699D01*
X186250737Y-98851699D02*
X186289441Y-98774290D01*
X186289441Y-98774290D02*
X186366851Y-98735585D01*
X186366851Y-98735585D02*
X186792603Y-98735585D01*
X194592603Y-98980460D02*
X194592603Y-99444917D01*
X194592603Y-99212689D02*
X193779803Y-99212689D01*
X193779803Y-99212689D02*
X193895918Y-99290098D01*
X193895918Y-99290098D02*
X193973327Y-99367508D01*
X193973327Y-99367508D02*
X194012032Y-99444917D01*
X194592603Y-98632118D02*
X193779803Y-98632118D01*
X194592603Y-98167661D02*
X194128146Y-98516003D01*
X193779803Y-98167661D02*
X194244260Y-98632118D01*
X194392603Y-87580460D02*
X194392603Y-88044917D01*
X194392603Y-87812689D02*
X193579803Y-87812689D01*
X193579803Y-87812689D02*
X193695918Y-87890098D01*
X193695918Y-87890098D02*
X193773327Y-87967508D01*
X193773327Y-87967508D02*
X193812032Y-88044917D01*
X194392603Y-87232118D02*
X193579803Y-87232118D01*
X194392603Y-86767661D02*
X193928146Y-87116003D01*
X193579803Y-86767661D02*
X194044260Y-87232118D01*
X194692603Y-74980460D02*
X194692603Y-75444917D01*
X194692603Y-75212689D02*
X193879803Y-75212689D01*
X193879803Y-75212689D02*
X193995918Y-75290098D01*
X193995918Y-75290098D02*
X194073327Y-75367508D01*
X194073327Y-75367508D02*
X194112032Y-75444917D01*
X194692603Y-74632118D02*
X193879803Y-74632118D01*
X194692603Y-74167661D02*
X194228146Y-74516003D01*
X193879803Y-74167661D02*
X194344260Y-74632118D01*
X191019539Y-63092603D02*
X190555082Y-63092603D01*
X190787310Y-63092603D02*
X190787310Y-62279803D01*
X190787310Y-62279803D02*
X190709901Y-62395918D01*
X190709901Y-62395918D02*
X190632491Y-62473327D01*
X190632491Y-62473327D02*
X190555082Y-62512032D01*
X191367881Y-63092603D02*
X191367881Y-62279803D01*
X191832338Y-63092603D02*
X191483996Y-62628146D01*
X191832338Y-62279803D02*
X191367881Y-62744260D01*
X141155082Y-74353899D02*
X141271196Y-74392603D01*
X141271196Y-74392603D02*
X141464720Y-74392603D01*
X141464720Y-74392603D02*
X141542129Y-74353899D01*
X141542129Y-74353899D02*
X141580834Y-74315194D01*
X141580834Y-74315194D02*
X141619539Y-74237784D01*
X141619539Y-74237784D02*
X141619539Y-74160375D01*
X141619539Y-74160375D02*
X141580834Y-74082965D01*
X141580834Y-74082965D02*
X141542129Y-74044260D01*
X141542129Y-74044260D02*
X141464720Y-74005556D01*
X141464720Y-74005556D02*
X141309901Y-73966851D01*
X141309901Y-73966851D02*
X141232491Y-73928146D01*
X141232491Y-73928146D02*
X141193786Y-73889441D01*
X141193786Y-73889441D02*
X141155082Y-73812032D01*
X141155082Y-73812032D02*
X141155082Y-73734622D01*
X141155082Y-73734622D02*
X141193786Y-73657213D01*
X141193786Y-73657213D02*
X141232491Y-73618508D01*
X141232491Y-73618508D02*
X141309901Y-73579803D01*
X141309901Y-73579803D02*
X141503424Y-73579803D01*
X141503424Y-73579803D02*
X141619539Y-73618508D01*
X141929177Y-74353899D02*
X142045291Y-74392603D01*
X142045291Y-74392603D02*
X142238815Y-74392603D01*
X142238815Y-74392603D02*
X142316224Y-74353899D01*
X142316224Y-74353899D02*
X142354929Y-74315194D01*
X142354929Y-74315194D02*
X142393634Y-74237784D01*
X142393634Y-74237784D02*
X142393634Y-74160375D01*
X142393634Y-74160375D02*
X142354929Y-74082965D01*
X142354929Y-74082965D02*
X142316224Y-74044260D01*
X142316224Y-74044260D02*
X142238815Y-74005556D01*
X142238815Y-74005556D02*
X142083996Y-73966851D01*
X142083996Y-73966851D02*
X142006586Y-73928146D01*
X142006586Y-73928146D02*
X141967881Y-73889441D01*
X141967881Y-73889441D02*
X141929177Y-73812032D01*
X141929177Y-73812032D02*
X141929177Y-73734622D01*
X141929177Y-73734622D02*
X141967881Y-73657213D01*
X141967881Y-73657213D02*
X142006586Y-73618508D01*
X142006586Y-73618508D02*
X142083996Y-73579803D01*
X142083996Y-73579803D02*
X142277519Y-73579803D01*
X142277519Y-73579803D02*
X142393634Y-73618508D01*
X142741976Y-74392603D02*
X142741976Y-73579803D01*
X142741976Y-73579803D02*
X142935500Y-73579803D01*
X142935500Y-73579803D02*
X143051614Y-73618508D01*
X143051614Y-73618508D02*
X143129024Y-73695918D01*
X143129024Y-73695918D02*
X143167729Y-73773327D01*
X143167729Y-73773327D02*
X143206433Y-73928146D01*
X143206433Y-73928146D02*
X143206433Y-74044260D01*
X143206433Y-74044260D02*
X143167729Y-74199079D01*
X143167729Y-74199079D02*
X143129024Y-74276489D01*
X143129024Y-74276489D02*
X143051614Y-74353899D01*
X143051614Y-74353899D02*
X142935500Y-74392603D01*
X142935500Y-74392603D02*
X142741976Y-74392603D01*
X143980529Y-74392603D02*
X143516072Y-74392603D01*
X143748300Y-74392603D02*
X143748300Y-73579803D01*
X143748300Y-73579803D02*
X143670891Y-73695918D01*
X143670891Y-73695918D02*
X143593481Y-73773327D01*
X143593481Y-73773327D02*
X143516072Y-73812032D01*
X144251462Y-73579803D02*
X144754624Y-73579803D01*
X144754624Y-73579803D02*
X144483690Y-73889441D01*
X144483690Y-73889441D02*
X144599805Y-73889441D01*
X144599805Y-73889441D02*
X144677214Y-73928146D01*
X144677214Y-73928146D02*
X144715919Y-73966851D01*
X144715919Y-73966851D02*
X144754624Y-74044260D01*
X144754624Y-74044260D02*
X144754624Y-74237784D01*
X144754624Y-74237784D02*
X144715919Y-74315194D01*
X144715919Y-74315194D02*
X144677214Y-74353899D01*
X144677214Y-74353899D02*
X144599805Y-74392603D01*
X144599805Y-74392603D02*
X144367576Y-74392603D01*
X144367576Y-74392603D02*
X144290167Y-74353899D01*
X144290167Y-74353899D02*
X144251462Y-74315194D01*
X145257785Y-73579803D02*
X145335195Y-73579803D01*
X145335195Y-73579803D02*
X145412604Y-73618508D01*
X145412604Y-73618508D02*
X145451309Y-73657213D01*
X145451309Y-73657213D02*
X145490014Y-73734622D01*
X145490014Y-73734622D02*
X145528719Y-73889441D01*
X145528719Y-73889441D02*
X145528719Y-74082965D01*
X145528719Y-74082965D02*
X145490014Y-74237784D01*
X145490014Y-74237784D02*
X145451309Y-74315194D01*
X145451309Y-74315194D02*
X145412604Y-74353899D01*
X145412604Y-74353899D02*
X145335195Y-74392603D01*
X145335195Y-74392603D02*
X145257785Y-74392603D01*
X145257785Y-74392603D02*
X145180376Y-74353899D01*
X145180376Y-74353899D02*
X145141671Y-74315194D01*
X145141671Y-74315194D02*
X145102966Y-74237784D01*
X145102966Y-74237784D02*
X145064262Y-74082965D01*
X145064262Y-74082965D02*
X145064262Y-73889441D01*
X145064262Y-73889441D02*
X145102966Y-73734622D01*
X145102966Y-73734622D02*
X145141671Y-73657213D01*
X145141671Y-73657213D02*
X145180376Y-73618508D01*
X145180376Y-73618508D02*
X145257785Y-73579803D01*
X146225404Y-73579803D02*
X146070585Y-73579803D01*
X146070585Y-73579803D02*
X145993176Y-73618508D01*
X145993176Y-73618508D02*
X145954471Y-73657213D01*
X145954471Y-73657213D02*
X145877061Y-73773327D01*
X145877061Y-73773327D02*
X145838357Y-73928146D01*
X145838357Y-73928146D02*
X145838357Y-74237784D01*
X145838357Y-74237784D02*
X145877061Y-74315194D01*
X145877061Y-74315194D02*
X145915766Y-74353899D01*
X145915766Y-74353899D02*
X145993176Y-74392603D01*
X145993176Y-74392603D02*
X146147995Y-74392603D01*
X146147995Y-74392603D02*
X146225404Y-74353899D01*
X146225404Y-74353899D02*
X146264109Y-74315194D01*
X146264109Y-74315194D02*
X146302814Y-74237784D01*
X146302814Y-74237784D02*
X146302814Y-74044260D01*
X146302814Y-74044260D02*
X146264109Y-73966851D01*
X146264109Y-73966851D02*
X146225404Y-73928146D01*
X146225404Y-73928146D02*
X146147995Y-73889441D01*
X146147995Y-73889441D02*
X145993176Y-73889441D01*
X145993176Y-73889441D02*
X145915766Y-73928146D01*
X145915766Y-73928146D02*
X145877061Y-73966851D01*
X145877061Y-73966851D02*
X145838357Y-74044260D01*
X147657480Y-74392603D02*
X147270432Y-74392603D01*
X147270432Y-74392603D02*
X147270432Y-73579803D01*
X147928413Y-73966851D02*
X148199347Y-73966851D01*
X148315461Y-74392603D02*
X147928413Y-74392603D01*
X147928413Y-74392603D02*
X147928413Y-73579803D01*
X147928413Y-73579803D02*
X148315461Y-73579803D01*
X148663803Y-74392603D02*
X148663803Y-73579803D01*
X148663803Y-73579803D02*
X148857327Y-73579803D01*
X148857327Y-73579803D02*
X148973441Y-73618508D01*
X148973441Y-73618508D02*
X149050851Y-73695918D01*
X149050851Y-73695918D02*
X149089556Y-73773327D01*
X149089556Y-73773327D02*
X149128260Y-73928146D01*
X149128260Y-73928146D02*
X149128260Y-74044260D01*
X149128260Y-74044260D02*
X149089556Y-74199079D01*
X149089556Y-74199079D02*
X149050851Y-74276489D01*
X149050851Y-74276489D02*
X148973441Y-74353899D01*
X148973441Y-74353899D02*
X148857327Y-74392603D01*
X148857327Y-74392603D02*
X148663803Y-74392603D01*
X170155082Y-81560375D02*
X170542129Y-81560375D01*
X170077672Y-81792603D02*
X170348605Y-80979803D01*
X170348605Y-80979803D02*
X170619539Y-81792603D01*
X170890472Y-81792603D02*
X170890472Y-81250737D01*
X170890472Y-81405556D02*
X170929177Y-81328146D01*
X170929177Y-81328146D02*
X170967882Y-81289441D01*
X170967882Y-81289441D02*
X171045291Y-81250737D01*
X171045291Y-81250737D02*
X171122701Y-81250737D01*
X171741977Y-81792603D02*
X171741977Y-80979803D01*
X171741977Y-81753899D02*
X171664568Y-81792603D01*
X171664568Y-81792603D02*
X171509749Y-81792603D01*
X171509749Y-81792603D02*
X171432339Y-81753899D01*
X171432339Y-81753899D02*
X171393634Y-81715194D01*
X171393634Y-81715194D02*
X171354930Y-81637784D01*
X171354930Y-81637784D02*
X171354930Y-81405556D01*
X171354930Y-81405556D02*
X171393634Y-81328146D01*
X171393634Y-81328146D02*
X171432339Y-81289441D01*
X171432339Y-81289441D02*
X171509749Y-81250737D01*
X171509749Y-81250737D02*
X171664568Y-81250737D01*
X171664568Y-81250737D02*
X171741977Y-81289441D01*
X172477367Y-81250737D02*
X172477367Y-81792603D01*
X172129024Y-81250737D02*
X172129024Y-81676489D01*
X172129024Y-81676489D02*
X172167729Y-81753899D01*
X172167729Y-81753899D02*
X172245139Y-81792603D01*
X172245139Y-81792603D02*
X172361253Y-81792603D01*
X172361253Y-81792603D02*
X172438662Y-81753899D01*
X172438662Y-81753899D02*
X172477367Y-81715194D01*
X172864414Y-81792603D02*
X172864414Y-81250737D01*
X172864414Y-80979803D02*
X172825710Y-81018508D01*
X172825710Y-81018508D02*
X172864414Y-81057213D01*
X172864414Y-81057213D02*
X172903119Y-81018508D01*
X172903119Y-81018508D02*
X172864414Y-80979803D01*
X172864414Y-80979803D02*
X172864414Y-81057213D01*
X173251462Y-81250737D02*
X173251462Y-81792603D01*
X173251462Y-81328146D02*
X173290167Y-81289441D01*
X173290167Y-81289441D02*
X173367577Y-81250737D01*
X173367577Y-81250737D02*
X173483691Y-81250737D01*
X173483691Y-81250737D02*
X173561100Y-81289441D01*
X173561100Y-81289441D02*
X173599805Y-81366851D01*
X173599805Y-81366851D02*
X173599805Y-81792603D01*
X174102967Y-81792603D02*
X174025557Y-81753899D01*
X174025557Y-81753899D02*
X173986852Y-81715194D01*
X173986852Y-81715194D02*
X173948148Y-81637784D01*
X173948148Y-81637784D02*
X173948148Y-81405556D01*
X173948148Y-81405556D02*
X173986852Y-81328146D01*
X173986852Y-81328146D02*
X174025557Y-81289441D01*
X174025557Y-81289441D02*
X174102967Y-81250737D01*
X174102967Y-81250737D02*
X174219081Y-81250737D01*
X174219081Y-81250737D02*
X174296490Y-81289441D01*
X174296490Y-81289441D02*
X174335195Y-81328146D01*
X174335195Y-81328146D02*
X174373900Y-81405556D01*
X174373900Y-81405556D02*
X174373900Y-81637784D01*
X174373900Y-81637784D02*
X174335195Y-81715194D01*
X174335195Y-81715194D02*
X174296490Y-81753899D01*
X174296490Y-81753899D02*
X174219081Y-81792603D01*
X174219081Y-81792603D02*
X174102967Y-81792603D01*
X175341518Y-81792603D02*
X175341518Y-80979803D01*
X175341518Y-80979803D02*
X175805975Y-81792603D01*
X175805975Y-81792603D02*
X175805975Y-80979803D01*
X176541366Y-81792603D02*
X176541366Y-81366851D01*
X176541366Y-81366851D02*
X176502661Y-81289441D01*
X176502661Y-81289441D02*
X176425252Y-81250737D01*
X176425252Y-81250737D02*
X176270433Y-81250737D01*
X176270433Y-81250737D02*
X176193023Y-81289441D01*
X176541366Y-81753899D02*
X176463957Y-81792603D01*
X176463957Y-81792603D02*
X176270433Y-81792603D01*
X176270433Y-81792603D02*
X176193023Y-81753899D01*
X176193023Y-81753899D02*
X176154319Y-81676489D01*
X176154319Y-81676489D02*
X176154319Y-81599079D01*
X176154319Y-81599079D02*
X176193023Y-81521670D01*
X176193023Y-81521670D02*
X176270433Y-81482965D01*
X176270433Y-81482965D02*
X176463957Y-81482965D01*
X176463957Y-81482965D02*
X176541366Y-81444260D01*
X176928413Y-81250737D02*
X176928413Y-81792603D01*
X176928413Y-81328146D02*
X176967118Y-81289441D01*
X176967118Y-81289441D02*
X177044528Y-81250737D01*
X177044528Y-81250737D02*
X177160642Y-81250737D01*
X177160642Y-81250737D02*
X177238051Y-81289441D01*
X177238051Y-81289441D02*
X177276756Y-81366851D01*
X177276756Y-81366851D02*
X177276756Y-81792603D01*
X177779918Y-81792603D02*
X177702508Y-81753899D01*
X177702508Y-81753899D02*
X177663803Y-81715194D01*
X177663803Y-81715194D02*
X177625099Y-81637784D01*
X177625099Y-81637784D02*
X177625099Y-81405556D01*
X177625099Y-81405556D02*
X177663803Y-81328146D01*
X177663803Y-81328146D02*
X177702508Y-81289441D01*
X177702508Y-81289441D02*
X177779918Y-81250737D01*
X177779918Y-81250737D02*
X177896032Y-81250737D01*
X177896032Y-81250737D02*
X177973441Y-81289441D01*
X177973441Y-81289441D02*
X178012146Y-81328146D01*
X178012146Y-81328146D02*
X178050851Y-81405556D01*
X178050851Y-81405556D02*
X178050851Y-81637784D01*
X178050851Y-81637784D02*
X178012146Y-81715194D01*
X178012146Y-81715194D02*
X177973441Y-81753899D01*
X177973441Y-81753899D02*
X177896032Y-81792603D01*
X177896032Y-81792603D02*
X177779918Y-81792603D01*
D12*
X145738095Y-104557419D02*
X145738095Y-105366942D01*
X145738095Y-105366942D02*
X145785714Y-105462180D01*
X145785714Y-105462180D02*
X145833333Y-105509800D01*
X145833333Y-105509800D02*
X145928571Y-105557419D01*
X145928571Y-105557419D02*
X146119047Y-105557419D01*
X146119047Y-105557419D02*
X146214285Y-105509800D01*
X146214285Y-105509800D02*
X146261904Y-105462180D01*
X146261904Y-105462180D02*
X146309523Y-105366942D01*
X146309523Y-105366942D02*
X146309523Y-104557419D01*
X147309523Y-105557419D02*
X146738095Y-105557419D01*
X147023809Y-105557419D02*
X147023809Y-104557419D01*
X147023809Y-104557419D02*
X146928571Y-104700276D01*
X146928571Y-104700276D02*
X146833333Y-104795514D01*
X146833333Y-104795514D02*
X146738095Y-104843133D01*
X138788800Y-95793830D02*
X138826895Y-95679544D01*
X138826895Y-95679544D02*
X138826895Y-95489068D01*
X138826895Y-95489068D02*
X138788800Y-95412877D01*
X138788800Y-95412877D02*
X138750704Y-95374782D01*
X138750704Y-95374782D02*
X138674514Y-95336687D01*
X138674514Y-95336687D02*
X138598323Y-95336687D01*
X138598323Y-95336687D02*
X138522133Y-95374782D01*
X138522133Y-95374782D02*
X138484038Y-95412877D01*
X138484038Y-95412877D02*
X138445942Y-95489068D01*
X138445942Y-95489068D02*
X138407847Y-95641449D01*
X138407847Y-95641449D02*
X138369752Y-95717639D01*
X138369752Y-95717639D02*
X138331657Y-95755734D01*
X138331657Y-95755734D02*
X138255466Y-95793830D01*
X138255466Y-95793830D02*
X138179276Y-95793830D01*
X138179276Y-95793830D02*
X138103085Y-95755734D01*
X138103085Y-95755734D02*
X138064990Y-95717639D01*
X138064990Y-95717639D02*
X138026895Y-95641449D01*
X138026895Y-95641449D02*
X138026895Y-95450972D01*
X138026895Y-95450972D02*
X138064990Y-95336687D01*
X138750704Y-94536686D02*
X138788800Y-94574782D01*
X138788800Y-94574782D02*
X138826895Y-94689067D01*
X138826895Y-94689067D02*
X138826895Y-94765258D01*
X138826895Y-94765258D02*
X138788800Y-94879544D01*
X138788800Y-94879544D02*
X138712609Y-94955734D01*
X138712609Y-94955734D02*
X138636419Y-94993829D01*
X138636419Y-94993829D02*
X138484038Y-95031925D01*
X138484038Y-95031925D02*
X138369752Y-95031925D01*
X138369752Y-95031925D02*
X138217371Y-94993829D01*
X138217371Y-94993829D02*
X138141180Y-94955734D01*
X138141180Y-94955734D02*
X138064990Y-94879544D01*
X138064990Y-94879544D02*
X138026895Y-94765258D01*
X138026895Y-94765258D02*
X138026895Y-94689067D01*
X138026895Y-94689067D02*
X138064990Y-94574782D01*
X138064990Y-94574782D02*
X138103085Y-94536686D01*
X138826895Y-93812877D02*
X138826895Y-94193829D01*
X138826895Y-94193829D02*
X138026895Y-94193829D01*
X142987895Y-95997020D02*
X143787895Y-95730353D01*
X143787895Y-95730353D02*
X142987895Y-95463687D01*
X143711704Y-94739877D02*
X143749800Y-94777973D01*
X143749800Y-94777973D02*
X143787895Y-94892258D01*
X143787895Y-94892258D02*
X143787895Y-94968449D01*
X143787895Y-94968449D02*
X143749800Y-95082735D01*
X143749800Y-95082735D02*
X143673609Y-95158925D01*
X143673609Y-95158925D02*
X143597419Y-95197020D01*
X143597419Y-95197020D02*
X143445038Y-95235116D01*
X143445038Y-95235116D02*
X143330752Y-95235116D01*
X143330752Y-95235116D02*
X143178371Y-95197020D01*
X143178371Y-95197020D02*
X143102180Y-95158925D01*
X143102180Y-95158925D02*
X143025990Y-95082735D01*
X143025990Y-95082735D02*
X142987895Y-94968449D01*
X142987895Y-94968449D02*
X142987895Y-94892258D01*
X142987895Y-94892258D02*
X143025990Y-94777973D01*
X143025990Y-94777973D02*
X143064085Y-94739877D01*
X143711704Y-93939877D02*
X143749800Y-93977973D01*
X143749800Y-93977973D02*
X143787895Y-94092258D01*
X143787895Y-94092258D02*
X143787895Y-94168449D01*
X143787895Y-94168449D02*
X143749800Y-94282735D01*
X143749800Y-94282735D02*
X143673609Y-94358925D01*
X143673609Y-94358925D02*
X143597419Y-94397020D01*
X143597419Y-94397020D02*
X143445038Y-94435116D01*
X143445038Y-94435116D02*
X143330752Y-94435116D01*
X143330752Y-94435116D02*
X143178371Y-94397020D01*
X143178371Y-94397020D02*
X143102180Y-94358925D01*
X143102180Y-94358925D02*
X143025990Y-94282735D01*
X143025990Y-94282735D02*
X142987895Y-94168449D01*
X142987895Y-94168449D02*
X142987895Y-94092258D01*
X142987895Y-94092258D02*
X143025990Y-93977973D01*
X143025990Y-93977973D02*
X143064085Y-93939877D01*
X140564990Y-95463687D02*
X140526895Y-95539877D01*
X140526895Y-95539877D02*
X140526895Y-95654163D01*
X140526895Y-95654163D02*
X140564990Y-95768449D01*
X140564990Y-95768449D02*
X140641180Y-95844639D01*
X140641180Y-95844639D02*
X140717371Y-95882734D01*
X140717371Y-95882734D02*
X140869752Y-95920830D01*
X140869752Y-95920830D02*
X140984038Y-95920830D01*
X140984038Y-95920830D02*
X141136419Y-95882734D01*
X141136419Y-95882734D02*
X141212609Y-95844639D01*
X141212609Y-95844639D02*
X141288800Y-95768449D01*
X141288800Y-95768449D02*
X141326895Y-95654163D01*
X141326895Y-95654163D02*
X141326895Y-95577972D01*
X141326895Y-95577972D02*
X141288800Y-95463687D01*
X141288800Y-95463687D02*
X141250704Y-95425591D01*
X141250704Y-95425591D02*
X140984038Y-95425591D01*
X140984038Y-95425591D02*
X140984038Y-95577972D01*
X141326895Y-95082734D02*
X140526895Y-95082734D01*
X140526895Y-95082734D02*
X141326895Y-94625591D01*
X141326895Y-94625591D02*
X140526895Y-94625591D01*
X141326895Y-94244639D02*
X140526895Y-94244639D01*
X140526895Y-94244639D02*
X140526895Y-94054163D01*
X140526895Y-94054163D02*
X140564990Y-93939877D01*
X140564990Y-93939877D02*
X140641180Y-93863687D01*
X140641180Y-93863687D02*
X140717371Y-93825592D01*
X140717371Y-93825592D02*
X140869752Y-93787496D01*
X140869752Y-93787496D02*
X140984038Y-93787496D01*
X140984038Y-93787496D02*
X141136419Y-93825592D01*
X141136419Y-93825592D02*
X141212609Y-93863687D01*
X141212609Y-93863687D02*
X141288800Y-93939877D01*
X141288800Y-93939877D02*
X141326895Y-94054163D01*
X141326895Y-94054163D02*
X141326895Y-94244639D01*
X133826895Y-95628734D02*
X133026895Y-95628734D01*
X133826895Y-95247782D02*
X133026895Y-95247782D01*
X133026895Y-95247782D02*
X133826895Y-94790639D01*
X133826895Y-94790639D02*
X133026895Y-94790639D01*
X133026895Y-94523973D02*
X133026895Y-94066830D01*
X133826895Y-94295402D02*
X133026895Y-94295402D01*
X136256800Y-95920830D02*
X136294895Y-95806544D01*
X136294895Y-95806544D02*
X136294895Y-95616068D01*
X136294895Y-95616068D02*
X136256800Y-95539877D01*
X136256800Y-95539877D02*
X136218704Y-95501782D01*
X136218704Y-95501782D02*
X136142514Y-95463687D01*
X136142514Y-95463687D02*
X136066323Y-95463687D01*
X136066323Y-95463687D02*
X135990133Y-95501782D01*
X135990133Y-95501782D02*
X135952038Y-95539877D01*
X135952038Y-95539877D02*
X135913942Y-95616068D01*
X135913942Y-95616068D02*
X135875847Y-95768449D01*
X135875847Y-95768449D02*
X135837752Y-95844639D01*
X135837752Y-95844639D02*
X135799657Y-95882734D01*
X135799657Y-95882734D02*
X135723466Y-95920830D01*
X135723466Y-95920830D02*
X135647276Y-95920830D01*
X135647276Y-95920830D02*
X135571085Y-95882734D01*
X135571085Y-95882734D02*
X135532990Y-95844639D01*
X135532990Y-95844639D02*
X135494895Y-95768449D01*
X135494895Y-95768449D02*
X135494895Y-95577972D01*
X135494895Y-95577972D02*
X135532990Y-95463687D01*
X136294895Y-95120829D02*
X135494895Y-95120829D01*
X135494895Y-95120829D02*
X135494895Y-94930353D01*
X135494895Y-94930353D02*
X135532990Y-94816067D01*
X135532990Y-94816067D02*
X135609180Y-94739877D01*
X135609180Y-94739877D02*
X135685371Y-94701782D01*
X135685371Y-94701782D02*
X135837752Y-94663686D01*
X135837752Y-94663686D02*
X135952038Y-94663686D01*
X135952038Y-94663686D02*
X136104419Y-94701782D01*
X136104419Y-94701782D02*
X136180609Y-94739877D01*
X136180609Y-94739877D02*
X136256800Y-94816067D01*
X136256800Y-94816067D02*
X136294895Y-94930353D01*
X136294895Y-94930353D02*
X136294895Y-95120829D01*
X136066323Y-94358925D02*
X136066323Y-93977972D01*
X136294895Y-94435115D02*
X135494895Y-94168448D01*
X135494895Y-94168448D02*
X136294895Y-93901782D01*
X159838095Y-87057419D02*
X159838095Y-87866942D01*
X159838095Y-87866942D02*
X159885714Y-87962180D01*
X159885714Y-87962180D02*
X159933333Y-88009800D01*
X159933333Y-88009800D02*
X160028571Y-88057419D01*
X160028571Y-88057419D02*
X160219047Y-88057419D01*
X160219047Y-88057419D02*
X160314285Y-88009800D01*
X160314285Y-88009800D02*
X160361904Y-87962180D01*
X160361904Y-87962180D02*
X160409523Y-87866942D01*
X160409523Y-87866942D02*
X160409523Y-87057419D01*
X160838095Y-87152657D02*
X160885714Y-87105038D01*
X160885714Y-87105038D02*
X160980952Y-87057419D01*
X160980952Y-87057419D02*
X161219047Y-87057419D01*
X161219047Y-87057419D02*
X161314285Y-87105038D01*
X161314285Y-87105038D02*
X161361904Y-87152657D01*
X161361904Y-87152657D02*
X161409523Y-87247895D01*
X161409523Y-87247895D02*
X161409523Y-87343133D01*
X161409523Y-87343133D02*
X161361904Y-87485990D01*
X161361904Y-87485990D02*
X160790476Y-88057419D01*
X160790476Y-88057419D02*
X161409523Y-88057419D01*
X147533800Y-65948830D02*
X147571895Y-65834544D01*
X147571895Y-65834544D02*
X147571895Y-65644068D01*
X147571895Y-65644068D02*
X147533800Y-65567877D01*
X147533800Y-65567877D02*
X147495704Y-65529782D01*
X147495704Y-65529782D02*
X147419514Y-65491687D01*
X147419514Y-65491687D02*
X147343323Y-65491687D01*
X147343323Y-65491687D02*
X147267133Y-65529782D01*
X147267133Y-65529782D02*
X147229038Y-65567877D01*
X147229038Y-65567877D02*
X147190942Y-65644068D01*
X147190942Y-65644068D02*
X147152847Y-65796449D01*
X147152847Y-65796449D02*
X147114752Y-65872639D01*
X147114752Y-65872639D02*
X147076657Y-65910734D01*
X147076657Y-65910734D02*
X147000466Y-65948830D01*
X147000466Y-65948830D02*
X146924276Y-65948830D01*
X146924276Y-65948830D02*
X146848085Y-65910734D01*
X146848085Y-65910734D02*
X146809990Y-65872639D01*
X146809990Y-65872639D02*
X146771895Y-65796449D01*
X146771895Y-65796449D02*
X146771895Y-65605972D01*
X146771895Y-65605972D02*
X146809990Y-65491687D01*
X147495704Y-64691686D02*
X147533800Y-64729782D01*
X147533800Y-64729782D02*
X147571895Y-64844067D01*
X147571895Y-64844067D02*
X147571895Y-64920258D01*
X147571895Y-64920258D02*
X147533800Y-65034544D01*
X147533800Y-65034544D02*
X147457609Y-65110734D01*
X147457609Y-65110734D02*
X147381419Y-65148829D01*
X147381419Y-65148829D02*
X147229038Y-65186925D01*
X147229038Y-65186925D02*
X147114752Y-65186925D01*
X147114752Y-65186925D02*
X146962371Y-65148829D01*
X146962371Y-65148829D02*
X146886180Y-65110734D01*
X146886180Y-65110734D02*
X146809990Y-65034544D01*
X146809990Y-65034544D02*
X146771895Y-64920258D01*
X146771895Y-64920258D02*
X146771895Y-64844067D01*
X146771895Y-64844067D02*
X146809990Y-64729782D01*
X146809990Y-64729782D02*
X146848085Y-64691686D01*
X147571895Y-63967877D02*
X147571895Y-64348829D01*
X147571895Y-64348829D02*
X146771895Y-64348829D01*
X141691895Y-66025020D02*
X142491895Y-65758353D01*
X142491895Y-65758353D02*
X141691895Y-65491687D01*
X142415704Y-64767877D02*
X142453800Y-64805973D01*
X142453800Y-64805973D02*
X142491895Y-64920258D01*
X142491895Y-64920258D02*
X142491895Y-64996449D01*
X142491895Y-64996449D02*
X142453800Y-65110735D01*
X142453800Y-65110735D02*
X142377609Y-65186925D01*
X142377609Y-65186925D02*
X142301419Y-65225020D01*
X142301419Y-65225020D02*
X142149038Y-65263116D01*
X142149038Y-65263116D02*
X142034752Y-65263116D01*
X142034752Y-65263116D02*
X141882371Y-65225020D01*
X141882371Y-65225020D02*
X141806180Y-65186925D01*
X141806180Y-65186925D02*
X141729990Y-65110735D01*
X141729990Y-65110735D02*
X141691895Y-64996449D01*
X141691895Y-64996449D02*
X141691895Y-64920258D01*
X141691895Y-64920258D02*
X141729990Y-64805973D01*
X141729990Y-64805973D02*
X141768085Y-64767877D01*
X142415704Y-63967877D02*
X142453800Y-64005973D01*
X142453800Y-64005973D02*
X142491895Y-64120258D01*
X142491895Y-64120258D02*
X142491895Y-64196449D01*
X142491895Y-64196449D02*
X142453800Y-64310735D01*
X142453800Y-64310735D02*
X142377609Y-64386925D01*
X142377609Y-64386925D02*
X142301419Y-64425020D01*
X142301419Y-64425020D02*
X142149038Y-64463116D01*
X142149038Y-64463116D02*
X142034752Y-64463116D01*
X142034752Y-64463116D02*
X141882371Y-64425020D01*
X141882371Y-64425020D02*
X141806180Y-64386925D01*
X141806180Y-64386925D02*
X141729990Y-64310735D01*
X141729990Y-64310735D02*
X141691895Y-64196449D01*
X141691895Y-64196449D02*
X141691895Y-64120258D01*
X141691895Y-64120258D02*
X141729990Y-64005973D01*
X141729990Y-64005973D02*
X141768085Y-63967877D01*
X152613800Y-66075830D02*
X152651895Y-65961544D01*
X152651895Y-65961544D02*
X152651895Y-65771068D01*
X152651895Y-65771068D02*
X152613800Y-65694877D01*
X152613800Y-65694877D02*
X152575704Y-65656782D01*
X152575704Y-65656782D02*
X152499514Y-65618687D01*
X152499514Y-65618687D02*
X152423323Y-65618687D01*
X152423323Y-65618687D02*
X152347133Y-65656782D01*
X152347133Y-65656782D02*
X152309038Y-65694877D01*
X152309038Y-65694877D02*
X152270942Y-65771068D01*
X152270942Y-65771068D02*
X152232847Y-65923449D01*
X152232847Y-65923449D02*
X152194752Y-65999639D01*
X152194752Y-65999639D02*
X152156657Y-66037734D01*
X152156657Y-66037734D02*
X152080466Y-66075830D01*
X152080466Y-66075830D02*
X152004276Y-66075830D01*
X152004276Y-66075830D02*
X151928085Y-66037734D01*
X151928085Y-66037734D02*
X151889990Y-65999639D01*
X151889990Y-65999639D02*
X151851895Y-65923449D01*
X151851895Y-65923449D02*
X151851895Y-65732972D01*
X151851895Y-65732972D02*
X151889990Y-65618687D01*
X152651895Y-65275829D02*
X151851895Y-65275829D01*
X151851895Y-65275829D02*
X151851895Y-65085353D01*
X151851895Y-65085353D02*
X151889990Y-64971067D01*
X151889990Y-64971067D02*
X151966180Y-64894877D01*
X151966180Y-64894877D02*
X152042371Y-64856782D01*
X152042371Y-64856782D02*
X152194752Y-64818686D01*
X152194752Y-64818686D02*
X152309038Y-64818686D01*
X152309038Y-64818686D02*
X152461419Y-64856782D01*
X152461419Y-64856782D02*
X152537609Y-64894877D01*
X152537609Y-64894877D02*
X152613800Y-64971067D01*
X152613800Y-64971067D02*
X152651895Y-65085353D01*
X152651895Y-65085353D02*
X152651895Y-65275829D01*
X152423323Y-64513925D02*
X152423323Y-64132972D01*
X152651895Y-64590115D02*
X151851895Y-64323448D01*
X151851895Y-64323448D02*
X152651895Y-64056782D01*
X137157990Y-65491687D02*
X137119895Y-65567877D01*
X137119895Y-65567877D02*
X137119895Y-65682163D01*
X137119895Y-65682163D02*
X137157990Y-65796449D01*
X137157990Y-65796449D02*
X137234180Y-65872639D01*
X137234180Y-65872639D02*
X137310371Y-65910734D01*
X137310371Y-65910734D02*
X137462752Y-65948830D01*
X137462752Y-65948830D02*
X137577038Y-65948830D01*
X137577038Y-65948830D02*
X137729419Y-65910734D01*
X137729419Y-65910734D02*
X137805609Y-65872639D01*
X137805609Y-65872639D02*
X137881800Y-65796449D01*
X137881800Y-65796449D02*
X137919895Y-65682163D01*
X137919895Y-65682163D02*
X137919895Y-65605972D01*
X137919895Y-65605972D02*
X137881800Y-65491687D01*
X137881800Y-65491687D02*
X137843704Y-65453591D01*
X137843704Y-65453591D02*
X137577038Y-65453591D01*
X137577038Y-65453591D02*
X137577038Y-65605972D01*
X137919895Y-65110734D02*
X137119895Y-65110734D01*
X137119895Y-65110734D02*
X137919895Y-64653591D01*
X137919895Y-64653591D02*
X137119895Y-64653591D01*
X137919895Y-64272639D02*
X137119895Y-64272639D01*
X137119895Y-64272639D02*
X137119895Y-64082163D01*
X137119895Y-64082163D02*
X137157990Y-63967877D01*
X137157990Y-63967877D02*
X137234180Y-63891687D01*
X137234180Y-63891687D02*
X137310371Y-63853592D01*
X137310371Y-63853592D02*
X137462752Y-63815496D01*
X137462752Y-63815496D02*
X137577038Y-63815496D01*
X137577038Y-63815496D02*
X137729419Y-63853592D01*
X137729419Y-63853592D02*
X137805609Y-63891687D01*
X137805609Y-63891687D02*
X137881800Y-63967877D01*
X137881800Y-63967877D02*
X137919895Y-64082163D01*
X137919895Y-64082163D02*
X137919895Y-64272639D01*
D13*
X201469048Y-96654819D02*
X201469048Y-95654819D01*
X201469048Y-95654819D02*
X201707143Y-95654819D01*
X201707143Y-95654819D02*
X201850000Y-95702438D01*
X201850000Y-95702438D02*
X201945238Y-95797676D01*
X201945238Y-95797676D02*
X201992857Y-95892914D01*
X201992857Y-95892914D02*
X202040476Y-96083390D01*
X202040476Y-96083390D02*
X202040476Y-96226247D01*
X202040476Y-96226247D02*
X201992857Y-96416723D01*
X201992857Y-96416723D02*
X201945238Y-96511961D01*
X201945238Y-96511961D02*
X201850000Y-96607200D01*
X201850000Y-96607200D02*
X201707143Y-96654819D01*
X201707143Y-96654819D02*
X201469048Y-96654819D01*
X202659524Y-95654819D02*
X202850000Y-95654819D01*
X202850000Y-95654819D02*
X202945238Y-95702438D01*
X202945238Y-95702438D02*
X203040476Y-95797676D01*
X203040476Y-95797676D02*
X203088095Y-95988152D01*
X203088095Y-95988152D02*
X203088095Y-96321485D01*
X203088095Y-96321485D02*
X203040476Y-96511961D01*
X203040476Y-96511961D02*
X202945238Y-96607200D01*
X202945238Y-96607200D02*
X202850000Y-96654819D01*
X202850000Y-96654819D02*
X202659524Y-96654819D01*
X202659524Y-96654819D02*
X202564286Y-96607200D01*
X202564286Y-96607200D02*
X202469048Y-96511961D01*
X202469048Y-96511961D02*
X202421429Y-96321485D01*
X202421429Y-96321485D02*
X202421429Y-95988152D01*
X202421429Y-95988152D02*
X202469048Y-95797676D01*
X202469048Y-95797676D02*
X202564286Y-95702438D01*
X202564286Y-95702438D02*
X202659524Y-95654819D01*
X203421429Y-95654819D02*
X203659524Y-96654819D01*
X203659524Y-96654819D02*
X203850000Y-95940533D01*
X203850000Y-95940533D02*
X204040476Y-96654819D01*
X204040476Y-96654819D02*
X204278572Y-95654819D01*
X204659524Y-96654819D02*
X204659524Y-95654819D01*
X204659524Y-95654819D02*
X205230952Y-96654819D01*
X205230952Y-96654819D02*
X205230952Y-95654819D01*
X184559580Y-100266666D02*
X184607200Y-100314285D01*
X184607200Y-100314285D02*
X184654819Y-100457142D01*
X184654819Y-100457142D02*
X184654819Y-100552380D01*
X184654819Y-100552380D02*
X184607200Y-100695237D01*
X184607200Y-100695237D02*
X184511961Y-100790475D01*
X184511961Y-100790475D02*
X184416723Y-100838094D01*
X184416723Y-100838094D02*
X184226247Y-100885713D01*
X184226247Y-100885713D02*
X184083390Y-100885713D01*
X184083390Y-100885713D02*
X183892914Y-100838094D01*
X183892914Y-100838094D02*
X183797676Y-100790475D01*
X183797676Y-100790475D02*
X183702438Y-100695237D01*
X183702438Y-100695237D02*
X183654819Y-100552380D01*
X183654819Y-100552380D02*
X183654819Y-100457142D01*
X183654819Y-100457142D02*
X183702438Y-100314285D01*
X183702438Y-100314285D02*
X183750057Y-100266666D01*
X183654819Y-99933332D02*
X183654819Y-99314285D01*
X183654819Y-99314285D02*
X184035771Y-99647618D01*
X184035771Y-99647618D02*
X184035771Y-99504761D01*
X184035771Y-99504761D02*
X184083390Y-99409523D01*
X184083390Y-99409523D02*
X184131009Y-99361904D01*
X184131009Y-99361904D02*
X184226247Y-99314285D01*
X184226247Y-99314285D02*
X184464342Y-99314285D01*
X184464342Y-99314285D02*
X184559580Y-99361904D01*
X184559580Y-99361904D02*
X184607200Y-99409523D01*
X184607200Y-99409523D02*
X184654819Y-99504761D01*
X184654819Y-99504761D02*
X184654819Y-99790475D01*
X184654819Y-99790475D02*
X184607200Y-99885713D01*
X184607200Y-99885713D02*
X184559580Y-99933332D01*
X196824819Y-99076666D02*
X196348628Y-99409999D01*
X196824819Y-99648094D02*
X195824819Y-99648094D01*
X195824819Y-99648094D02*
X195824819Y-99267142D01*
X195824819Y-99267142D02*
X195872438Y-99171904D01*
X195872438Y-99171904D02*
X195920057Y-99124285D01*
X195920057Y-99124285D02*
X196015295Y-99076666D01*
X196015295Y-99076666D02*
X196158152Y-99076666D01*
X196158152Y-99076666D02*
X196253390Y-99124285D01*
X196253390Y-99124285D02*
X196301009Y-99171904D01*
X196301009Y-99171904D02*
X196348628Y-99267142D01*
X196348628Y-99267142D02*
X196348628Y-99648094D01*
X195824819Y-98743332D02*
X195824819Y-98124285D01*
X195824819Y-98124285D02*
X196205771Y-98457618D01*
X196205771Y-98457618D02*
X196205771Y-98314761D01*
X196205771Y-98314761D02*
X196253390Y-98219523D01*
X196253390Y-98219523D02*
X196301009Y-98171904D01*
X196301009Y-98171904D02*
X196396247Y-98124285D01*
X196396247Y-98124285D02*
X196634342Y-98124285D01*
X196634342Y-98124285D02*
X196729580Y-98171904D01*
X196729580Y-98171904D02*
X196777200Y-98219523D01*
X196777200Y-98219523D02*
X196824819Y-98314761D01*
X196824819Y-98314761D02*
X196824819Y-98600475D01*
X196824819Y-98600475D02*
X196777200Y-98695713D01*
X196777200Y-98695713D02*
X196729580Y-98743332D01*
X184549580Y-88566666D02*
X184597200Y-88614285D01*
X184597200Y-88614285D02*
X184644819Y-88757142D01*
X184644819Y-88757142D02*
X184644819Y-88852380D01*
X184644819Y-88852380D02*
X184597200Y-88995237D01*
X184597200Y-88995237D02*
X184501961Y-89090475D01*
X184501961Y-89090475D02*
X184406723Y-89138094D01*
X184406723Y-89138094D02*
X184216247Y-89185713D01*
X184216247Y-89185713D02*
X184073390Y-89185713D01*
X184073390Y-89185713D02*
X183882914Y-89138094D01*
X183882914Y-89138094D02*
X183787676Y-89090475D01*
X183787676Y-89090475D02*
X183692438Y-88995237D01*
X183692438Y-88995237D02*
X183644819Y-88852380D01*
X183644819Y-88852380D02*
X183644819Y-88757142D01*
X183644819Y-88757142D02*
X183692438Y-88614285D01*
X183692438Y-88614285D02*
X183740057Y-88566666D01*
X183740057Y-88185713D02*
X183692438Y-88138094D01*
X183692438Y-88138094D02*
X183644819Y-88042856D01*
X183644819Y-88042856D02*
X183644819Y-87804761D01*
X183644819Y-87804761D02*
X183692438Y-87709523D01*
X183692438Y-87709523D02*
X183740057Y-87661904D01*
X183740057Y-87661904D02*
X183835295Y-87614285D01*
X183835295Y-87614285D02*
X183930533Y-87614285D01*
X183930533Y-87614285D02*
X184073390Y-87661904D01*
X184073390Y-87661904D02*
X184644819Y-88233332D01*
X184644819Y-88233332D02*
X184644819Y-87614285D01*
X196824819Y-87376666D02*
X196348628Y-87709999D01*
X196824819Y-87948094D02*
X195824819Y-87948094D01*
X195824819Y-87948094D02*
X195824819Y-87567142D01*
X195824819Y-87567142D02*
X195872438Y-87471904D01*
X195872438Y-87471904D02*
X195920057Y-87424285D01*
X195920057Y-87424285D02*
X196015295Y-87376666D01*
X196015295Y-87376666D02*
X196158152Y-87376666D01*
X196158152Y-87376666D02*
X196253390Y-87424285D01*
X196253390Y-87424285D02*
X196301009Y-87471904D01*
X196301009Y-87471904D02*
X196348628Y-87567142D01*
X196348628Y-87567142D02*
X196348628Y-87948094D01*
X195920057Y-86995713D02*
X195872438Y-86948094D01*
X195872438Y-86948094D02*
X195824819Y-86852856D01*
X195824819Y-86852856D02*
X195824819Y-86614761D01*
X195824819Y-86614761D02*
X195872438Y-86519523D01*
X195872438Y-86519523D02*
X195920057Y-86471904D01*
X195920057Y-86471904D02*
X196015295Y-86424285D01*
X196015295Y-86424285D02*
X196110533Y-86424285D01*
X196110533Y-86424285D02*
X196253390Y-86471904D01*
X196253390Y-86471904D02*
X196824819Y-87043332D01*
X196824819Y-87043332D02*
X196824819Y-86424285D01*
X184559580Y-76166666D02*
X184607200Y-76214285D01*
X184607200Y-76214285D02*
X184654819Y-76357142D01*
X184654819Y-76357142D02*
X184654819Y-76452380D01*
X184654819Y-76452380D02*
X184607200Y-76595237D01*
X184607200Y-76595237D02*
X184511961Y-76690475D01*
X184511961Y-76690475D02*
X184416723Y-76738094D01*
X184416723Y-76738094D02*
X184226247Y-76785713D01*
X184226247Y-76785713D02*
X184083390Y-76785713D01*
X184083390Y-76785713D02*
X183892914Y-76738094D01*
X183892914Y-76738094D02*
X183797676Y-76690475D01*
X183797676Y-76690475D02*
X183702438Y-76595237D01*
X183702438Y-76595237D02*
X183654819Y-76452380D01*
X183654819Y-76452380D02*
X183654819Y-76357142D01*
X183654819Y-76357142D02*
X183702438Y-76214285D01*
X183702438Y-76214285D02*
X183750057Y-76166666D01*
X184654819Y-75214285D02*
X184654819Y-75785713D01*
X184654819Y-75499999D02*
X183654819Y-75499999D01*
X183654819Y-75499999D02*
X183797676Y-75595237D01*
X183797676Y-75595237D02*
X183892914Y-75690475D01*
X183892914Y-75690475D02*
X183940533Y-75785713D01*
X197224819Y-74876666D02*
X196748628Y-75209999D01*
X197224819Y-75448094D02*
X196224819Y-75448094D01*
X196224819Y-75448094D02*
X196224819Y-75067142D01*
X196224819Y-75067142D02*
X196272438Y-74971904D01*
X196272438Y-74971904D02*
X196320057Y-74924285D01*
X196320057Y-74924285D02*
X196415295Y-74876666D01*
X196415295Y-74876666D02*
X196558152Y-74876666D01*
X196558152Y-74876666D02*
X196653390Y-74924285D01*
X196653390Y-74924285D02*
X196701009Y-74971904D01*
X196701009Y-74971904D02*
X196748628Y-75067142D01*
X196748628Y-75067142D02*
X196748628Y-75448094D01*
X197224819Y-73924285D02*
X197224819Y-74495713D01*
X197224819Y-74209999D02*
X196224819Y-74209999D01*
X196224819Y-74209999D02*
X196367676Y-74305237D01*
X196367676Y-74305237D02*
X196462914Y-74400475D01*
X196462914Y-74400475D02*
X196510533Y-74495713D01*
X191023333Y-60684819D02*
X190690000Y-60208628D01*
X190451905Y-60684819D02*
X190451905Y-59684819D01*
X190451905Y-59684819D02*
X190832857Y-59684819D01*
X190832857Y-59684819D02*
X190928095Y-59732438D01*
X190928095Y-59732438D02*
X190975714Y-59780057D01*
X190975714Y-59780057D02*
X191023333Y-59875295D01*
X191023333Y-59875295D02*
X191023333Y-60018152D01*
X191023333Y-60018152D02*
X190975714Y-60113390D01*
X190975714Y-60113390D02*
X190928095Y-60161009D01*
X190928095Y-60161009D02*
X190832857Y-60208628D01*
X190832857Y-60208628D02*
X190451905Y-60208628D01*
X191880476Y-60018152D02*
X191880476Y-60684819D01*
X191642381Y-59637200D02*
X191404286Y-60351485D01*
X191404286Y-60351485D02*
X192023333Y-60351485D01*
X197687143Y-66529104D02*
X198163333Y-66529104D01*
X197591905Y-66814819D02*
X197925238Y-65814819D01*
X197925238Y-65814819D02*
X198258571Y-66814819D01*
X199068095Y-66814819D02*
X198591905Y-66814819D01*
X198591905Y-66814819D02*
X198591905Y-65814819D01*
X199353810Y-66529104D02*
X199830000Y-66529104D01*
X199258572Y-66814819D02*
X199591905Y-65814819D01*
X199591905Y-65814819D02*
X199925238Y-66814819D01*
X200830000Y-66814819D02*
X200496667Y-66338628D01*
X200258572Y-66814819D02*
X200258572Y-65814819D01*
X200258572Y-65814819D02*
X200639524Y-65814819D01*
X200639524Y-65814819D02*
X200734762Y-65862438D01*
X200734762Y-65862438D02*
X200782381Y-65910057D01*
X200782381Y-65910057D02*
X200830000Y-66005295D01*
X200830000Y-66005295D02*
X200830000Y-66148152D01*
X200830000Y-66148152D02*
X200782381Y-66243390D01*
X200782381Y-66243390D02*
X200734762Y-66291009D01*
X200734762Y-66291009D02*
X200639524Y-66338628D01*
X200639524Y-66338628D02*
X200258572Y-66338628D01*
X201258572Y-66814819D02*
X201258572Y-65814819D01*
X201258572Y-65814819D02*
X201591905Y-66529104D01*
X201591905Y-66529104D02*
X201925238Y-65814819D01*
X201925238Y-65814819D02*
X201925238Y-66814819D01*
X201416667Y-72454819D02*
X201416667Y-71454819D01*
X201416667Y-71454819D02*
X201750000Y-72169104D01*
X201750000Y-72169104D02*
X202083333Y-71454819D01*
X202083333Y-71454819D02*
X202083333Y-72454819D01*
X202559524Y-71931009D02*
X202892857Y-71931009D01*
X203035714Y-72454819D02*
X202559524Y-72454819D01*
X202559524Y-72454819D02*
X202559524Y-71454819D01*
X202559524Y-71454819D02*
X203035714Y-71454819D01*
X203464286Y-72454819D02*
X203464286Y-71454819D01*
X203464286Y-71454819D02*
X204035714Y-72454819D01*
X204035714Y-72454819D02*
X204035714Y-71454819D01*
X204511905Y-71454819D02*
X204511905Y-72264342D01*
X204511905Y-72264342D02*
X204559524Y-72359580D01*
X204559524Y-72359580D02*
X204607143Y-72407200D01*
X204607143Y-72407200D02*
X204702381Y-72454819D01*
X204702381Y-72454819D02*
X204892857Y-72454819D01*
X204892857Y-72454819D02*
X204988095Y-72407200D01*
X204988095Y-72407200D02*
X205035714Y-72359580D01*
X205035714Y-72359580D02*
X205083333Y-72264342D01*
X205083333Y-72264342D02*
X205083333Y-71454819D01*
X202464286Y-83954819D02*
X202464286Y-84764342D01*
X202464286Y-84764342D02*
X202511905Y-84859580D01*
X202511905Y-84859580D02*
X202559524Y-84907200D01*
X202559524Y-84907200D02*
X202654762Y-84954819D01*
X202654762Y-84954819D02*
X202845238Y-84954819D01*
X202845238Y-84954819D02*
X202940476Y-84907200D01*
X202940476Y-84907200D02*
X202988095Y-84859580D01*
X202988095Y-84859580D02*
X203035714Y-84764342D01*
X203035714Y-84764342D02*
X203035714Y-83954819D01*
X203511905Y-84954819D02*
X203511905Y-83954819D01*
X203511905Y-83954819D02*
X203892857Y-83954819D01*
X203892857Y-83954819D02*
X203988095Y-84002438D01*
X203988095Y-84002438D02*
X204035714Y-84050057D01*
X204035714Y-84050057D02*
X204083333Y-84145295D01*
X204083333Y-84145295D02*
X204083333Y-84288152D01*
X204083333Y-84288152D02*
X204035714Y-84383390D01*
X204035714Y-84383390D02*
X203988095Y-84431009D01*
X203988095Y-84431009D02*
X203892857Y-84478628D01*
X203892857Y-84478628D02*
X203511905Y-84478628D01*
X173275714Y-106849104D02*
X173751904Y-106849104D01*
X173180476Y-107134819D02*
X173513809Y-106134819D01*
X173513809Y-106134819D02*
X173847142Y-107134819D01*
X174704285Y-107134819D02*
X174132857Y-107134819D01*
X174418571Y-107134819D02*
X174418571Y-106134819D01*
X174418571Y-106134819D02*
X174323333Y-106277676D01*
X174323333Y-106277676D02*
X174228095Y-106372914D01*
X174228095Y-106372914D02*
X174132857Y-106420533D01*
X175251904Y-66585180D02*
X175251904Y-65775657D01*
X175251904Y-65775657D02*
X175204285Y-65680419D01*
X175204285Y-65680419D02*
X175156666Y-65632800D01*
X175156666Y-65632800D02*
X175061428Y-65585180D01*
X175061428Y-65585180D02*
X174870952Y-65585180D01*
X174870952Y-65585180D02*
X174775714Y-65632800D01*
X174775714Y-65632800D02*
X174728095Y-65680419D01*
X174728095Y-65680419D02*
X174680476Y-65775657D01*
X174680476Y-65775657D02*
X174680476Y-66585180D01*
X174251904Y-65632800D02*
X174109047Y-65585180D01*
X174109047Y-65585180D02*
X173870952Y-65585180D01*
X173870952Y-65585180D02*
X173775714Y-65632800D01*
X173775714Y-65632800D02*
X173728095Y-65680419D01*
X173728095Y-65680419D02*
X173680476Y-65775657D01*
X173680476Y-65775657D02*
X173680476Y-65870895D01*
X173680476Y-65870895D02*
X173728095Y-65966133D01*
X173728095Y-65966133D02*
X173775714Y-66013752D01*
X173775714Y-66013752D02*
X173870952Y-66061371D01*
X173870952Y-66061371D02*
X174061428Y-66108990D01*
X174061428Y-66108990D02*
X174156666Y-66156609D01*
X174156666Y-66156609D02*
X174204285Y-66204228D01*
X174204285Y-66204228D02*
X174251904Y-66299466D01*
X174251904Y-66299466D02*
X174251904Y-66394704D01*
X174251904Y-66394704D02*
X174204285Y-66489942D01*
X174204285Y-66489942D02*
X174156666Y-66537561D01*
X174156666Y-66537561D02*
X174061428Y-66585180D01*
X174061428Y-66585180D02*
X173823333Y-66585180D01*
X173823333Y-66585180D02*
X173680476Y-66537561D01*
X172918571Y-66108990D02*
X172775714Y-66061371D01*
X172775714Y-66061371D02*
X172728095Y-66013752D01*
X172728095Y-66013752D02*
X172680476Y-65918514D01*
X172680476Y-65918514D02*
X172680476Y-65775657D01*
X172680476Y-65775657D02*
X172728095Y-65680419D01*
X172728095Y-65680419D02*
X172775714Y-65632800D01*
X172775714Y-65632800D02*
X172870952Y-65585180D01*
X172870952Y-65585180D02*
X173251904Y-65585180D01*
X173251904Y-65585180D02*
X173251904Y-66585180D01*
X173251904Y-66585180D02*
X172918571Y-66585180D01*
X172918571Y-66585180D02*
X172823333Y-66537561D01*
X172823333Y-66537561D02*
X172775714Y-66489942D01*
X172775714Y-66489942D02*
X172728095Y-66394704D01*
X172728095Y-66394704D02*
X172728095Y-66299466D01*
X172728095Y-66299466D02*
X172775714Y-66204228D01*
X172775714Y-66204228D02*
X172823333Y-66156609D01*
X172823333Y-66156609D02*
X172918571Y-66108990D01*
X172918571Y-66108990D02*
X173251904Y-66108990D01*
D12*
X145430000Y-105410000D02*
X131430000Y-105410000D01*
X145430000Y-91410000D02*
X145430000Y-105410000D01*
X131430000Y-105410000D02*
X131430000Y-91410000D01*
X131430000Y-91410000D02*
X145430000Y-91410000D01*
X131500000Y-60168000D02*
X159500000Y-60168000D01*
X159500000Y-88168000D01*
X131500000Y-88168000D01*
X131500000Y-60168000D01*
D14*
X199850000Y-99700000D02*
X199850000Y-101200000D01*
X201100000Y-103700000D02*
X205600000Y-103700000D01*
X205600000Y-97200000D02*
X201100000Y-97200000D01*
X206850000Y-101200000D02*
X206850000Y-99700000D01*
X187740000Y-97630000D02*
X188070000Y-97630000D01*
X185330000Y-97630000D02*
X185660000Y-97630000D01*
X188070000Y-102570000D02*
X188070000Y-97630000D01*
X187740000Y-102570000D02*
X188070000Y-102570000D01*
X185330000Y-102570000D02*
X185330000Y-97630000D01*
X185330000Y-102570000D02*
X185660000Y-102570000D01*
X195370000Y-95640000D02*
X195370000Y-102180000D01*
X195040000Y-95640000D02*
X195370000Y-95640000D01*
X192960000Y-95640000D02*
X192630000Y-95640000D01*
X192630000Y-95640000D02*
X192630000Y-102180000D01*
X195370000Y-102180000D02*
X195040000Y-102180000D01*
X192630000Y-102180000D02*
X192960000Y-102180000D01*
X185320000Y-90870000D02*
X185650000Y-90870000D01*
X185320000Y-90870000D02*
X185320000Y-85930000D01*
X187730000Y-90870000D02*
X188060000Y-90870000D01*
X188060000Y-90870000D02*
X188060000Y-85930000D01*
X185320000Y-85930000D02*
X185650000Y-85930000D01*
X187730000Y-85930000D02*
X188060000Y-85930000D01*
X195370000Y-83940000D02*
X195370000Y-90480000D01*
X195040000Y-83940000D02*
X195370000Y-83940000D01*
X192960000Y-83940000D02*
X192630000Y-83940000D01*
X192630000Y-83940000D02*
X192630000Y-90480000D01*
X195370000Y-90480000D02*
X195040000Y-90480000D01*
X192630000Y-90480000D02*
X192960000Y-90480000D01*
X185330000Y-78470000D02*
X185660000Y-78470000D01*
X185330000Y-78470000D02*
X185330000Y-73530000D01*
X187740000Y-78470000D02*
X188070000Y-78470000D01*
X188070000Y-78470000D02*
X188070000Y-73530000D01*
X185330000Y-73530000D02*
X185660000Y-73530000D01*
X187740000Y-73530000D02*
X188070000Y-73530000D01*
X195770000Y-71440000D02*
X195770000Y-77980000D01*
X195440000Y-71440000D02*
X195770000Y-71440000D01*
X193360000Y-71440000D02*
X193030000Y-71440000D01*
X193030000Y-71440000D02*
X193030000Y-77980000D01*
X195770000Y-77980000D02*
X195440000Y-77980000D01*
X193030000Y-77980000D02*
X193360000Y-77980000D01*
X187920000Y-61230000D02*
X194460000Y-61230000D01*
X187920000Y-61560000D02*
X187920000Y-61230000D01*
X187920000Y-63640000D02*
X187920000Y-63970000D01*
X187920000Y-63970000D02*
X194460000Y-63970000D01*
X194460000Y-61230000D02*
X194460000Y-61560000D01*
X194460000Y-63970000D02*
X194460000Y-63640000D01*
X202330000Y-62400000D02*
G75*
G02*
X197330000Y-62400000I-2500000J0D01*
G01*
X197330000Y-62400000D02*
G75*
G02*
X202330000Y-62400000I2500000J0D01*
G01*
X196840000Y-62400000D02*
G75*
G02*
X202390000Y-60855170I2990000J0D01*
G01*
X202390000Y-63944830D02*
G75*
G02*
X196840000Y-62400000I-2560000J1544830D01*
G01*
X202390000Y-63945000D02*
X202390000Y-60855000D01*
X206750000Y-77000000D02*
X206750000Y-75500000D01*
X205500000Y-73000000D02*
X201000000Y-73000000D01*
X201000000Y-79500000D02*
X205500000Y-79500000D01*
X199750000Y-75500000D02*
X199750000Y-77000000D01*
X206750000Y-89500000D02*
X206750000Y-88000000D01*
X205500000Y-85500000D02*
X201000000Y-85500000D01*
X201000000Y-92000000D02*
X205500000Y-92000000D01*
X199750000Y-88000000D02*
X199750000Y-89500000D01*
X164970000Y-62100000D02*
X164970000Y-105540000D01*
X164970000Y-62100000D02*
X170050000Y-62100000D01*
X164970000Y-105540000D02*
X183010000Y-105540000D01*
X167640000Y-64770000D02*
X164970000Y-64770000D01*
X167640000Y-102870000D02*
X164970000Y-102870000D01*
X167640000Y-102870000D02*
X167640000Y-64770000D01*
X170050000Y-59560000D02*
X177930000Y-59560000D01*
X170050000Y-69980000D02*
X170050000Y-59560000D01*
X177930000Y-59560000D02*
X177930000Y-69980000D01*
X177930000Y-69980000D02*
X170050000Y-69980000D01*
X180340000Y-64770000D02*
X183010000Y-64770000D01*
X180340000Y-100330000D02*
X180340000Y-64770000D01*
X180340000Y-100330000D02*
X180340000Y-102870000D01*
X180340000Y-100330000D02*
X183010000Y-100330000D01*
X180340000Y-102870000D02*
X183010000Y-102870000D01*
X183010000Y-62100000D02*
X177930000Y-62100000D01*
X183010000Y-100330000D02*
X183010000Y-62100000D01*
X183010000Y-105540000D02*
X183010000Y-102870000D01*
M02*
